<?xml version="1.0" encoding="utf-8"?>
<!-- Generator: Adobe Illustrator 24.0.0, SVG Export Plug-In . SVG Version: 6.00 Build 0)  -->
<svg version="1.1" id="Camada_1" xmlns="http://www.w3.org/2000/svg" xmlns:xlink="http://www.w3.org/1999/xlink" x="0px" y="0px"
	 viewBox="0 0 914.82 687.57" style="enable-background:new 0 0 914.82 687.57;" xml:space="preserve">
<style type="text/css">
	.st0{opacity:0.4;fill:#FFD573;enable-background:new    ;}
	.st1{fill:#3F3D56;}
	.st2{fill:#FFB351;}
	.st3{opacity:0.1;enable-background:new    ;}
	.st4{fill:#2F2E41;}
	.st5{fill:#575A89;}
	.st6{fill:#FFB9B9;}
	.st7{fill:#B78B34;}
	.st8{fill:#A0616A;}
	.st9{fill:#DD9130;}
	.st10{fill:#F2F2F2;}
	.st11{fill:#683E01;}
</style>
<title>voting</title>
<circle class="st0" cx="772.1" cy="242.43" r="21.92"/>
<circle class="st0" cx="309.93" cy="112.5" r="31.25"/>
<circle class="st0" cx="252.1" cy="127.43" r="21.92"/>
<path class="st1" d="M790.46,487.55c-17.32,18.96-17.95,46.58-17.95,46.58s27.45-3.12,44.77-22.08s17.95-46.58,17.95-46.58
	S807.78,468.59,790.46,487.55z"/>
<path class="st2" d="M800.24,493.01c-5.24,25.14-27.27,41.82-27.27,41.82s-13.53-24.09-8.29-49.23s27.27-41.82,27.27-41.82
	S805.48,467.86,800.24,493.01z"/>
<polygon class="st1" points="777.75,233.58 777.75,533.29 677.84,615.82 166.75,615.82 166.75,301.63 315.88,233.58 "/>
<polygon class="st3" points="777.75,233.58 777.75,234.78 741.88,258.79 677.84,301.63 166.75,301.63 315.88,233.58 "/>
<polygon class="st3" points="777.75,233.58 777.75,533.29 677.84,615.82 678.57,300.91 741.88,258.79 777.17,233.58 "/>
<polygon class="st4" points="643.09,274.85 331.8,274.85 354.97,261.81 653.23,261.81 "/>
<path class="st4" d="M911.76,632.12c0,0,6.03,25.24,0.55,26.33s-32.37,0.74-38.95,1.84s-20.3-0.74-20.3-5.68s14.26-8.23,14.26-8.23
	s20.3-10.97,20.85-11.52S911.76,632.12,911.76,632.12z"/>
<path class="st5" d="M906.82,483.44c0,0-1.65,18.65-1.65,20.3s1.65,27.43,0,28.53s1.1,8.78,1.1,11.52s8.78,48.28,6.58,65.83
	s3.29,15.91,1.65,17.56s-1.65,1.65-1.65,4.94s-17.56,6.03-17.56,6.03l-19.2-121.24l9.88-36.21L906.82,483.44z"/>
<path class="st3" d="M906.82,483.44c0,0-1.65,18.65-1.65,20.3s1.65,27.43,0,28.53s1.1,8.78,1.1,11.52s8.78,48.28,6.58,65.83
	s3.29,15.91,1.65,17.56s-1.65,1.65-1.65,4.94s-17.56,6.03-17.56,6.03l-19.2-121.24l9.88-36.21L906.82,483.44z"/>
<path class="st4" d="M904.08,639.8c0,0,5.49,19.75,0,20.85s-32.37-1.26-38.95-0.16s-20.3,1.26-20.3-3.68s14.26-8.23,14.26-8.23
	s20.3-10.97,20.85-11.52S904.08,639.8,904.08,639.8z"/>
<path class="st5" d="M911.76,461.5c0,0,6.58,15.91-1.1,24.14s-16.46,24.69-16.46,25.78s15.36,110.27,13.17,117.4
	s-1.65,11.52-1.1,12.62s-5.49,7.13-12.07,7.13s-16.46-4.94-17.56-9.33s1.65-42.24,1.1-49.38s-3.29-17.56-4.39-19.75
	s-7.13-4.39-8.23-10.97s-9.88-90.52-7.13-93.26S911.76,461.5,911.76,461.5z"/>
<circle class="st6" cx="870.07" cy="316.67" r="18.65"/>
<path class="st6" d="M881.59,325.99c0,0-3.84,20.3-1.1,22.49s-20.85,5.49-20.85,5.49s-2.74-26.88-3.29-29.63
	S881.59,325.99,881.59,325.99z"/>
<path class="st7" d="M856.35,352.33c0,0,6.58-19.2,33.47-13.72c0,0,4.94,1.65,3.29,3.29s-3.29,1.65-1.1,3.29s4.94,0,3.29,1.65
	s14.81,11.52,13.72,30.17s3.84,44.99,0,49.38s2.74,23.59,1.65,27.43s6.58,8.78,3.29,10.42s-62.54,11.52-64.19,0
	s-0.55-3.29-2.19-6.03s-2.19-7.68-1.1-13.72s3.84-20.85,2.74-26.33s0-51.57,3.29-57.06S856.35,352.33,856.35,352.33z"/>
<path class="st6" d="M867.87,486.19c0,0,8.23,31.27-2.19,31.27s-9.88-32.37-9.88-32.37L867.87,486.19z"/>
<path class="st4" d="M861.84,316.67c0,1.59,2.3,2.6,5.88,2.83h0.01c1.51,0.09,3.03,0.06,4.54-0.09c2.28-0.21,3.23,1.94,3.62,4.77
	c0.64,4.67-0.25,11.21,0.77,12.24c1.42,1.42,11.73-0.01,14.96-3.21c0.5-0.45,0.84-1.06,0.95-1.72c0.34-1.96,1.31-3.76,2.75-5.12
	c1.9-2.08,4.61-4.38,7.67-8.05c5.49-6.58,0-7.13-1.65-12.07s-4.39-6.58-4.39-9.88s-12.62-6.03-23.04-5.49s-8.23,13.72-8.23,13.72
	s-0.62,1.59-1.36,3.64c-1,2.57-1.82,5.22-2.44,7.91C861.85,316.32,861.84,316.49,861.84,316.67z"/>
<path class="st3" d="M864.03,360.55c0,0,18.65-1.1,20.3,26.33s1.1,53.22,1.1,53.76s-7.68,52.67-14.81,52.67s-12.62-1.1-14.26-3.84
	s4.39-42.24,4.39-42.24s2.74-41.69-1.65-54.86S854.16,362.2,864.03,360.55z"/>
<path class="st7" d="M861.29,357.81c0,0,18.65-1.1,20.3,26.33c1.65,27.43,1.1,53.22,1.1,53.76s-7.68,52.67-14.81,52.67
	s-12.62-1.1-14.26-3.84s4.39-42.24,4.39-42.24s2.74-41.69-1.65-54.86S851.41,359.46,861.29,357.81z"/>
<path class="st8" d="M551.98,89.64c0,0-8.13-23.03-14-15.81s9.03,19.42,9.03,19.42L551.98,89.64z"/>
<path class="st9" d="M590.37,67.06l-4.89,1.81c0,0-2.34,10.38-1.43,12.19s1.35,0.45,0,4.06s-5.42,13.1-5.87,14.45
	S551.98,91,551.98,86.03c0,0-5.42,6.32-8.13,7.68c0,0,29.81,21.68,33.87,24.39s6.32,1.35,9.94-1.81s18.97-29.35,18.97-29.35
	L590.37,67.06z"/>
<path class="st4" d="M577.27,227.38c0,0,0.45,4.97,1.35,5.42s7.68,11.74,0,14s-12.19,1.35-14,2.26s-33.42,2.71-33.87-2.26
	s15.35-5.87,15.35-5.87s14.45-9.48,16.71-14.45S577.27,227.38,577.27,227.38z"/>
<path class="st4" d="M668.95,236.42c0,0,10.84,18.52,8.13,20.77s-29.1,10.49-32.97,10.84c-4.97,0.45-8.58-3.61-4.52-5.87
	s12.65-11.74,12.65-14.9v-8.13L668.95,236.42z"/>
<path class="st4" d="M679.34,115.38c0,0,9.48,11.74-5.42,30.71l-24.84,31.61c0,0,15.35,24.39,15.81,37.03s3.61,9.94,4.52,15.35
	s4.97,2.71,1.81,6.77s-14.9,7.68-18.52,4.52c-2.52-2.3-3.85-5.63-3.61-9.03c0-1.81-6.32-12.19-6.77-15.35s-17.16-28.9-17.16-28.9
	s-5.42-15.35,0.9-23.94s10.5-20.75,10.5-20.75s-18.63,22.56-31.73,27.98c0,0-4.97,0.9-4.06,3.16s0,3.61-1.35,5.87
	s-10.84,28.45-14,35.23s-1.81,10.84-5.42,13.1s-19.87,0.45-19.87-1.81s2.26-8.13,3.61-11.29s12.19-39.74,11.29-46.06
	s0.45-14.9,7.23-18.52s41.1-32.97,42.9-32.97S679.34,115.38,679.34,115.38z"/>
<circle class="st8" cx="588.56" cy="25.51" r="18.97"/>
<path class="st8" d="M603.92,27.32c0,0,5.87,10.39,13.1,11.74s-18.97,22.13-18.97,22.13s-6.32-19.87-11.74-20.77
	S603.92,27.32,603.92,27.32z"/>
<path class="st9" d="M585.4,69.77c0,5.87,17.61,22.58,17.61,22.58l16.71,14c0,0,0.45,4.97,2.26,5.42s4.06,0.45,2.26,3.16
	s-6.32,8.58-2.26,9.48c1.23,0.19,2.46,0.3,3.7,0.35c1.08,0.06,2.36,0.12,3.79,0.18c3.34,0.12,7.52,0.19,12.05,0.16
	c1.29,0,2.6-0.02,3.93-0.05c17.08-0.34,36.86-2.3,35.24-8.77c-2.71-10.84-0.9-14.45-6.77-20.32s-15.35-26.19-15.35-26.19
	s-18.97-32.06-34.77-32.06l-3.28-0.86c-3.13-0.82-6.43,0.45-8.21,3.15c-3.17,4.83-8.17,12.08-11.09,14.42
	c-4.52,3.61-5.22,1.02-5.22,1.02S585.4,63.9,585.4,69.77z"/>
<path class="st8" d="M625.59,138.42c0,0-13.1,20.32-4.97,23.94s12.65-21.23,12.65-21.23L625.59,138.42z"/>
<path class="st4" d="M600.96,23.37c-0.73-0.09-0.96-1.01-1.08-1.73c-0.66-3.87-3.54-7.55-7.42-8.17c-1.48-0.2-2.99-0.08-4.42,0.36
	c-2.05,0.56-3.98,1.51-5.67,2.79c-0.83,0.76-1.79,1.36-2.84,1.78c-0.71,0.21-3.73,1.55-4.44,1.78c-1.55,0.5-2.84,2.12-4.44,1.8
	c-1.53-0.31-2.11-2.15-2.36-3.7c-0.56-3.51,1.45-8.75,3.45-11.69c1.52-2.23,4.08-3.52,6.65-4.35c3-0.91,6.09-1.53,9.22-1.83
	c4.22-0.5,8.59-0.76,12.63,0.54s7.72,4.49,8.48,8.68c0.16,0.87,0.19,1.76,0.38,2.63c0.47,2.11,1.86,3.88,2.68,5.88
	c1.19,2.97,1.06,6.3-0.35,9.18c-1.13,2.26-3.08,4.44-2.66,6.93l-3.49-2.75c-1.04-0.59-1.52-1.82-1.16-2.96l0.51-4.36
	c0.18-0.79,0.1-1.62-0.23-2.36C602.85,19.1,602.18,23.52,600.96,23.37z"/>
<path class="st3" d="M633.72,107.25l-4.25,17.69c4.29,0.15,9.97,0.23,15.98,0.12c1.52-4.55,2.97-9.3,4.08-13.74
	c4.06-16.26-2.71-41.1-6.32-52.84s-12.65-14.9-12.65-14.9c-3.7,1.3-7.2,3.13-10.39,5.42C614.3,53.06,633.72,107.25,633.72,107.25z"
	/>
<path class="st3" d="M630.11,106.35l-4.43,18.42c1.08,0.06,2.36,0.12,3.79,0.18c3.34,0.12,7.52,0.19,12.05,0.16
	c1.63-4.84,3.21-9.94,4.39-14.69c4.06-16.26-2.71-41.1-6.32-52.84s-11.52,1.13-11.52,1.13s3.16-7.68-2.71-3.61
	S630.11,106.35,630.11,106.35z"/>
<path class="st9" d="M628.76,42.67c0,0,9.03,3.16,12.65,14.9s10.39,36.58,6.32,52.84S635.08,147,635.08,147s-8.58-6.32-11.74-4.97
	l8.58-35.68c0,0-19.42-54.19-13.55-58.26C621.56,45.8,625.05,43.98,628.76,42.67z"/>
<polygon class="st10" points="635.49,269.2 510.54,8.83 301.62,109.08 378.46,269.2 "/>
<rect x="352.89" y="137.28" transform="matrix(0.9016 -0.4326 0.4326 0.9016 -20.251 193.1887)" class="st1" width="123.08" height="7.64"/>
<rect x="382.27" y="198.5" transform="matrix(0.9016 -0.4326 0.4326 0.9016 -43.8465 211.9259)" class="st1" width="123.08" height="7.64"/>
<rect x="495.38" y="80.11" transform="matrix(0.9016 -0.4326 0.4326 0.9016 8.9954 230.3212)" class="st1" width="30.56" height="30.56"/>
<rect x="524.76" y="141.34" transform="matrix(0.9016 -0.4326 0.4326 0.9016 -14.6001 249.0583)" class="st1" width="30.56" height="30.56"/>
<polygon class="st2" points="519.72,55.92 508.37,88.21 493.08,82.83 490.98,88.79 512.21,96.25 525.67,58.02 "/>
<polygon class="st2" points="549.1,117.15 537.75,149.43 522.46,144.05 520.36,150.01 541.59,157.47 555.05,119.24 "/>
<g id="b6a4aa65-5bff-4dd4-a595-827386906092">
	
		<rect x="5.39" y="505.75" transform="matrix(0.9779 -0.2089 0.2089 0.9779 -110.9231 18.9503)" class="st10" width="57.72" height="57.72"/>
	<path id="ac286760-ef31-4470-8aba-995faff60c3b-325" class="st11" d="M66.94,485.28c0,0-20.73,14.81-13.82,20.73
		s20.73-17.77,20.73-17.77L66.94,485.28z"/>
	<path id="ad0ee0d5-d520-47bd-bca9-706ef112ee3c-326" class="st11" d="M162.71,507.99c0,0-3.95,49.37-4.94,56.28
		s-1.97,69.11-3.95,76.03s-3.95,23.7-3.95,23.7h-11.85c0,0,0.99-30.61-1.97-42.46s-1.97-44.43-1.97-44.43s-5.92-58.25-2.96-66.15
		S162.71,507.99,162.71,507.99z"/>
	<path id="a2d865fc-f989-4a0f-bdfe-5d1a04b5cb09-327" class="st4" d="M146.91,661.03c0,0,4.94,2.96,4.94,4.94s-0.99,6.91,0,8.89
		s7.9,9.87,3.95,11.85s-21.72,0-21.72,0s0.99-13.82,1.97-14.81s-0.99-10.86-0.99-10.86H146.91z"/>
	<path id="a5afd73e-dc2f-49f8-bb76-01b6bc8ff4ec-328" class="st11" d="M87.23,506.78c0,0-1.25,49.51-1,56.49s-5.29,68.94-4.05,76.02
		s1.44,23.98,1.44,23.98l11.78,1.24c0,0,2.23-30.54,6.42-42.01s6.63-43.98,6.63-43.98s12.01-57.31,9.89-65.48
		S87.23,506.78,87.23,506.78z"/>
	<path id="bae9c969-98bd-41cd-ab49-dced4866e2f9-329" class="st4" d="M86.88,660.63c0,0-5.22,2.43-5.43,4.39s0.26,6.98-0.93,8.84
		s-8.89,8.99-5.17,11.37s21.6,2.28,21.6,2.28s0.47-13.85-0.41-14.94s2.12-10.7,2.12-10.7L86.88,660.63z"/>
	<path id="efa1face-c8d6-4f61-8a17-c81461288bfc-330" class="st4" d="M148.89,433.94c0,0,7.9,0.99,10.86,17.77
		s13.82,59.24,4.94,62.2s-35.54,8.89-36.53,6.91s-2.96-6.91-2.96-6.91s2.96,8.89-0.99,8.89s-42.46-5.92-41.47-8.89
		s2.96-24.68,2.96-24.68s5.92-36.53,11.85-42.46c3.47-3.33,5.28-8.04,4.94-12.84L148.89,433.94z"/>
	<path id="ba787e0e-2496-4127-9664-864bc1f1b460-331" class="st11" d="M163.7,426.04c0,0-12.84-2.96-14.81,0.99s4.94,9.87,7.9,9.87
		s7.9-2.96,7.9-2.96L163.7,426.04z"/>
	<circle id="af432612-84fe-4a80-a474-ad6710b59c23" class="st11" cx="137.04" cy="324.34" r="17.77"/>
	<path id="fc691572-079c-4ac7-a111-0c7206f484e6-332" class="st11" d="M134.08,337.18c0,0-2.96,13.82-0.99,13.82
		s-14.81,8.89-14.81,8.89l-12.84-1.97l-3.95-5.92c0,0,20.73-13.82,20.73-21.72S134.08,337.18,134.08,337.18z"/>
	<path id="a377c2ac-5aad-4dd5-94e4-d6887260be3a-333" class="st2" d="M125.19,351c0,0,2.96-1.97,3.95-1.97h7.9
		c0.99,0,13.82,2.96,13.82,2.96l7.9,44.43c0,0-13.82,22.71-3.95,40.48c0,0-2.96-1.97-16.78-0.99s-38.51,3.95-39.49,3.95
		s-0.99-7.9,0-9.87s-0.99-0.99-0.99-5.92s-2.96-13.82-2.96-13.82l-13.82-50.35c0,0,17.77-9.87,20.73-8.89s11.85,3.95,13.82,2.96
		C117.29,352.97,125.19,351,125.19,351z"/>
	<path id="fd50713a-8150-4e39-832b-91f38638a5e4-334" class="st2" d="M147.9,352.97l2.96-0.99c0,0,5.92-0.99,12.84,4.94
		s32.58,23.7,32.58,23.7s9.87,7.9,6.91,16.78s-7.9,30.61-22.71,29.62c0,0-8.89,11.85-13.82,9.87s-8.89-9.87-5.92-10.86
		s10.86-10.86,10.86-10.86l-9.87-18.76h-2.96l-10.86-5.92L147.9,352.97z"/>
	<path id="a85ddca5-281c-4897-a8aa-82a4133bac02-335" class="st2" d="M88.66,358.9l-7.9,0.99c0,0-6.91,2.96-5.92,15.8
		s-5.92,71.09-2.96,78c0,0-9.87,33.57-7.9,34.56s13.82,6.91,12.84,2.96s10.86-31.59,10.86-31.59s13.82-14.81,7.9-35.54v-16.78
		L88.66,358.9z"/>
	<path id="eb14ef5a-0bc4-48da-8b11-b0e113a7ef46-336" class="st4" d="M151.83,341.52l-12.55,2.73l-1.61-6.18l0.62,6.4l-20.25,4.41
		l-0.89-3.41l0.34,3.53l-12.97,2.83l-2.77-26.63c-2.85-10.93,7.56-22.58,18.49-25.43l4.85-1.27c8.03-2.09,22.62-0.19,24.71,7.84
		C146.12,320.34,139.87,335.68,151.83,341.52z"/>
</g>
</svg>
