<?xml version="1.0" encoding="utf-8"?>
<!-- Generator: Adobe Illustrator 24.0.0, SVG Export Plug-In . SVG Version: 6.00 Build 0)  -->
<svg version="1.1" id="Camada_1" xmlns="http://www.w3.org/2000/svg" xmlns:xlink="http://www.w3.org/1999/xlink" x="0px" y="0px"
	 viewBox="0 0 54 54" style="enable-background:new 0 0 54 54;" xml:space="preserve">
<style type="text/css">
	.st0{fill:none;stroke:#EBAF09;stroke-width:4;}
	.st1{fill:#EBAF09;}
	.st2{fill-rule:evenodd;clip-rule:evenodd;fill:#EBAF09;}
</style>
<title>logo-mobile</title>
<g id="Page-1">
	<g id="logo-mobile">
		<rect id="Rectangle-6" x="2" y="2" class="st0" width="50" height="50"/>
		<g>
			<g>
				<path class="st1" d="M18.13,41.26c0,0.27-0.01,0.49-0.03,0.68c-0.02,0.18-0.05,0.34-0.09,0.46c-0.04,0.12-0.09,0.21-0.15,0.26
					c-0.06,0.05-0.13,0.08-0.22,0.08h-7.32c-0.27,0-0.5-0.09-0.69-0.26c-0.19-0.17-0.28-0.46-0.28-0.85V25.84
					c0-0.09,0.03-0.17,0.08-0.24c0.05-0.07,0.14-0.13,0.27-0.17c0.12-0.04,0.29-0.08,0.5-0.11c0.21-0.03,0.47-0.04,0.78-0.04
					c0.32,0,0.58,0.01,0.79,0.04c0.21,0.03,0.37,0.06,0.49,0.11c0.12,0.05,0.21,0.1,0.27,0.17c0.05,0.07,0.08,0.15,0.08,0.24v13.98
					h5.03c0.08,0,0.15,0.02,0.22,0.07c0.06,0.05,0.11,0.13,0.15,0.24c0.04,0.11,0.07,0.26,0.09,0.44
					C18.12,40.76,18.13,40.99,18.13,41.26z"/>
				<path class="st1" d="M32.76,41.4c0.09,0.32,0.15,0.58,0.18,0.77c0.03,0.19,0,0.33-0.09,0.43c-0.09,0.1-0.26,0.16-0.51,0.18
					c-0.25,0.02-0.6,0.03-1.05,0.03c-0.4,0-0.72-0.01-0.94-0.02c-0.23-0.01-0.4-0.04-0.52-0.09c-0.12-0.04-0.2-0.1-0.23-0.18
					c-0.04-0.08-0.07-0.18-0.11-0.3l-3.83-13.48h-0.02l-3.8,13.44c-0.03,0.13-0.07,0.23-0.12,0.32c-0.05,0.08-0.13,0.15-0.25,0.19
					c-0.12,0.04-0.28,0.08-0.5,0.09c-0.22,0.02-0.51,0.03-0.87,0.03c-0.39,0-0.69-0.02-0.9-0.05c-0.21-0.03-0.36-0.1-0.44-0.2
					c-0.09-0.1-0.12-0.24-0.09-0.43c0.03-0.19,0.09-0.44,0.19-0.77l4.73-15.4c0.04-0.15,0.09-0.27,0.16-0.37
					c0.07-0.09,0.17-0.17,0.32-0.21c0.15-0.05,0.35-0.08,0.61-0.09c0.26-0.01,0.59-0.02,1.01-0.02c0.32,0,0.6,0,0.84,0.01
					c0.24,0,0.44,0.02,0.61,0.03c0.16,0.02,0.3,0.04,0.4,0.07c0.1,0.03,0.19,0.07,0.26,0.13c0.07,0.05,0.12,0.12,0.16,0.21
					c0.04,0.09,0.07,0.18,0.1,0.29L32.76,41.4z"/>
				<path class="st1" d="M46.63,37.52c0,0.62-0.08,1.18-0.23,1.68c-0.16,0.5-0.37,0.94-0.65,1.33c-0.28,0.39-0.6,0.72-0.99,0.99
					c-0.38,0.28-0.8,0.51-1.27,0.68c-0.46,0.18-0.95,0.31-1.48,0.4c-0.52,0.09-1.11,0.13-1.75,0.13h-4.25
					c-0.27,0-0.5-0.09-0.69-0.26c-0.19-0.17-0.28-0.46-0.28-0.85V26.48c0-0.39,0.09-0.68,0.28-0.85c0.19-0.17,0.41-0.26,0.69-0.26
					h4.01c0.98,0,1.81,0.09,2.49,0.27c0.68,0.18,1.25,0.45,1.72,0.81c0.47,0.36,0.82,0.82,1.07,1.38c0.25,0.56,0.37,1.21,0.37,1.96
					c0,0.42-0.05,0.82-0.15,1.19c-0.1,0.37-0.24,0.71-0.43,1.01c-0.19,0.3-0.42,0.57-0.7,0.81c-0.28,0.23-0.59,0.42-0.94,0.56
					c0.45,0.09,0.87,0.25,1.25,0.47c0.38,0.22,0.72,0.51,1,0.87c0.28,0.35,0.51,0.77,0.67,1.24C46.55,36.4,46.63,36.93,46.63,37.52z
					 M42.43,30.21c0-0.35-0.05-0.66-0.15-0.94c-0.1-0.28-0.25-0.51-0.44-0.69c-0.2-0.18-0.45-0.32-0.75-0.42
					c-0.3-0.1-0.7-0.15-1.2-0.15h-1.64v4.51h1.82c0.47,0,0.84-0.06,1.12-0.18c0.28-0.12,0.51-0.29,0.7-0.5
					c0.19-0.21,0.32-0.46,0.41-0.74C42.39,30.82,42.43,30.52,42.43,30.21z M43.26,37.64c0-0.4-0.06-0.76-0.19-1.08
					c-0.12-0.32-0.3-0.58-0.54-0.8c-0.24-0.21-0.54-0.38-0.91-0.5c-0.37-0.12-0.85-0.17-1.44-0.17h-1.93v4.94h2.35
					c0.45,0,0.83-0.05,1.14-0.15c0.31-0.1,0.58-0.26,0.8-0.46c0.23-0.2,0.4-0.45,0.53-0.75C43.19,38.37,43.26,38.03,43.26,37.64z"/>
			</g>
			<g>
				<path class="st1" d="M9.61,12.92c0.81-0.9,1.94-1.49,3.2-1.49c2.11,0,3.78,1.44,4.3,3.7h-1.32c-0.49-1.51-1.62-2.27-2.98-2.27
					c-0.88,0-1.69,0.42-2.27,1.08c-0.58,0.66-0.95,1.55-0.95,2.58c0,1,0.37,1.89,0.95,2.56c0.58,0.66,1.39,1.08,2.27,1.08
					c1.4,0,2.59-0.88,3.06-2.4h1.31c-0.53,2.28-2.22,3.83-4.37,3.83c-1.25,0-2.39-0.57-3.2-1.49c-0.79-0.92-1.32-2.18-1.32-3.57
					C8.29,15.1,8.82,13.83,9.61,12.92z"/>
				<path class="st1" d="M18.97,12.86c0.85-0.93,2.03-1.52,3.33-1.52c1.31,0,2.48,0.59,3.34,1.52c0.83,0.93,1.37,2.21,1.37,3.63
					c0,1.42-0.54,2.7-1.37,3.63c-0.86,0.95-2.03,1.52-3.34,1.52c-1.29,0-2.48-0.57-3.33-1.52c-0.83-0.93-1.37-2.21-1.37-3.63
					C17.6,15.07,18.14,13.79,18.97,12.86z M24.69,13.89c-0.62-0.67-1.48-1.09-2.39-1.09c-0.91,0-1.76,0.42-2.36,1.09
					c-0.61,0.66-0.99,1.58-0.99,2.6c0,1.02,0.38,1.94,0.99,2.6c0.61,0.67,1.45,1.09,2.36,1.09c0.91,0,1.77-0.42,2.39-1.09
					c0.59-0.66,0.98-1.57,0.98-2.6C25.67,15.46,25.28,14.55,24.69,13.89z"/>
			</g>
			<path class="st2" d="M29.37,36.94c0.29,9.47-8.3-0.33-8.01,7.25C21.37,40.8,30.23,47.15,29.37,36.94L29.37,36.94z"/>
		</g>
	</g>
</g>
</svg>
