<?xml version="1.0" encoding="utf-8"?>
<!-- Generator: Adobe Illustrator 24.0.0, SVG Export Plug-In . SVG Version: 6.00 Build 0)  -->
<svg version="1.1" id="Camada_1" xmlns="http://www.w3.org/2000/svg" xmlns:xlink="http://www.w3.org/1999/xlink" x="0px" y="0px"
	 viewBox="0 0 67.09 68" style="enable-background:new 0 0 67.09 68;" xml:space="preserve">
<style type="text/css">
	.st0{fill:#FFFFFF;}
</style>
<g transform="matrix(0.61524215,0,0,0.61524215,1,0.91434476)">
	<path class="st0" d="M24.63,9.4c-0.87,0.03-1.74,0.31-2.5,0.86c-2.01,1.46-2.47,4.29-1,6.31c1.47,2.01,4.29,2.46,6.3,1
		c2.02-1.46,2.47-4.29,1-6.3C27.53,9.99,26.08,9.35,24.63,9.4z M82.78,9.4c-1.45-0.05-2.89,0.6-3.81,1.86
		c-1.47,2.02-1.02,4.84,0.99,6.3c2.02,1.46,4.84,1.02,6.31-1c1.46-2.02,1.02-4.84-1-6.31C84.52,9.71,83.65,9.43,82.78,9.4z
		 M72.82,12.92c-1.48-0.11-2.95,0.66-3.67,2.07c-0.95,1.87-0.21,4.17,1.67,5.12c1.88,0.96,4.17,0.21,5.12-1.66
		c0.96-1.88,0.22-4.17-1.66-5.12C73.81,13.09,73.32,12.96,72.82,12.92z M64.12,17.65c-1.23,0.11-2.34,0.93-2.75,2.18
		c-0.54,1.66,0.37,3.46,2.04,4c1.67,0.54,3.46-0.37,4-2.04c0.54-1.67-0.38-3.46-2.04-4C64.96,17.66,64.53,17.61,64.12,17.65z
		 M24.36,20.55c-0.98,0-1.95,0.37-2.69,1.12c-1.49,1.49-1.49,3.9,0,5.39c1.49,1.48,3.9,1.48,5.39,0c1.48-1.49,1.49-3.9,0-5.39
		C26.31,20.92,25.33,20.55,24.36,20.55L24.36,20.55z M58.1,22.6c-1.23,0.05-2.29,0.96-2.49,2.23c-0.23,1.44,0.75,2.8,2.19,3.03
		c1.44,0.23,2.8-0.76,3.03-2.2c0.23-1.45-0.75-2.8-2.2-3.02C58.45,22.6,58.27,22.59,58.1,22.6z M53.71,27.69
		c-1.21,0-2.19,0.98-2.19,2.19c0,1.21,0.98,2.19,2.19,2.19c1.21,0,2.19-0.98,2.19-2.19C55.9,28.67,54.92,27.69,53.71,27.69z
		 M25.84,30.2c-1.02-0.03-2.04,0.42-2.68,1.31c-1.03,1.41-0.71,3.4,0.7,4.42c1.42,1.03,3.41,0.71,4.44-0.7
		c1.03-1.42,0.71-3.4-0.71-4.43C27.06,30.42,26.45,30.22,25.84,30.2z M50.73,32.55c-0.12-0.01-0.24,0-0.36,0.02
		c-0.99,0.16-1.66,1.08-1.5,2.06c0.15,0.98,1.07,1.65,2.06,1.5c0.98-0.16,1.65-1.08,1.49-2.06C52.28,33.21,51.56,32.59,50.73,32.55z
		 M28.21,37.98c-1.03-0.07-2.05,0.46-2.55,1.44c-0.66,1.3-0.14,2.89,1.16,3.55c1.31,0.67,2.89,0.15,3.55-1.15
		c0.66-1.31,0.15-2.9-1.15-3.56C28.9,38.1,28.56,38.01,28.21,37.98z M71.04,43.01c-0.23,0.02-0.47,0.08-0.69,0.19
		c-0.89,0.45-1.24,1.53-0.79,2.42c0.45,0.88,1.54,1.23,2.41,0.78c0.89-0.45,1.25-1.53,0.79-2.42
		C72.43,43.33,71.74,42.96,71.04,43.01z M30.86,44.16c-0.85,0.07-1.62,0.64-1.89,1.5c-0.38,1.15,0.25,2.38,1.41,2.75
		c1.15,0.38,2.38-0.25,2.75-1.4c0.38-1.14-0.25-2.39-1.4-2.76C31.44,44.17,31.14,44.14,30.86,44.16z M76.56,44.16
		c-0.28-0.02-0.58,0-0.87,0.1c-1.14,0.37-1.77,1.62-1.4,2.76c0.38,1.15,1.61,1.77,2.76,1.4c1.15-0.37,1.77-1.6,1.39-2.75
		C78.17,44.81,77.41,44.24,76.56,44.16z M82.3,46.55c-0.18-0.01-0.36,0-0.54,0.03c-1.45,0.23-2.43,1.59-2.2,3.03
		c0.23,1.44,1.58,2.43,3.03,2.2c1.44-0.23,2.42-1.58,2.2-3.03C84.59,47.52,83.53,46.61,82.3,46.55z M34.27,48.84
		c-0.83,0.04-1.55,0.66-1.69,1.51c-0.16,0.99,0.51,1.9,1.5,2.06c0.98,0.15,1.89-0.52,2.05-1.49c0.16-0.99-0.51-1.91-1.5-2.07
		C34.51,48.84,34.38,48.84,34.27,48.84z M88.29,50.53c-1.75,0-3.17,1.42-3.17,3.17c0,1.76,1.42,3.17,3.17,3.17
		c1.76,0,3.17-1.42,3.17-3.17C91.47,51.95,90.05,50.53,88.29,50.53z M94.53,56.39c-1.77,0.08-3.31,1.39-3.59,3.21
		c-0.32,2.08,1.09,4.03,3.17,4.36c2.08,0.33,4.02-1.09,4.36-3.16c0.32-2.08-1.09-4.03-3.16-4.36
		C95.04,56.39,94.78,56.38,94.53,56.39z M7.31,64.41c-0.58-0.05-1.19,0.01-1.78,0.21c-2.37,0.77-3.67,3.31-2.9,5.69
		c0.77,2.37,3.32,3.67,5.68,2.9c2.37-0.77,3.67-3.31,2.9-5.69C10.64,65.73,9.06,64.56,7.31,64.41z M100.11,64.41
		c-1.75,0.15-3.33,1.33-3.91,3.1c-0.76,2.37,0.53,4.92,2.9,5.69c2.37,0.77,4.91-0.53,5.68-2.9c0.77-2.37-0.52-4.92-2.9-5.69
		C101.29,64.42,100.69,64.36,100.11,64.41z M67.56,65.77c-0.46,0-0.92,0.18-1.27,0.53c-0.71,0.7-0.71,1.85-0.01,2.54
		c0.71,0.7,1.84,0.7,2.54,0c0.7-0.7,0.7-1.84,0-2.54C68.48,65.94,68.02,65.77,67.56,65.77L67.56,65.77z M16.45,68.75
		c-0.49,0.03-0.99,0.17-1.46,0.4c-1.87,0.96-2.62,3.25-1.67,5.13c0.95,1.87,3.25,2.62,5.13,1.67c1.87-0.96,2.62-3.25,1.67-5.12
		C19.41,69.42,17.94,68.65,16.45,68.75z M44.94,69.38c-0.7-0.05-1.39,0.32-1.73,0.98c-0.45,0.89-0.1,1.97,0.79,2.42
		c0.89,0.45,1.97,0.1,2.42-0.79c0.46-0.89,0.1-1.97-0.78-2.42C45.41,69.45,45.17,69.39,44.94,69.38z M39.78,70.79
		c-0.7-0.02-1.4,0.29-1.85,0.9c-0.71,0.98-0.5,2.34,0.48,3.05c0.97,0.71,2.35,0.49,3.05-0.49c0.71-0.97,0.49-2.34-0.48-3.05
		C40.62,70.94,40.2,70.81,39.78,70.79z M67.64,70.79c-0.42,0.01-0.84,0.15-1.21,0.42c-0.98,0.71-1.19,2.08-0.48,3.05
		c0.7,0.98,2.08,1.19,3.05,0.49c0.98-0.71,1.2-2.08,0.48-3.05C69.04,71.09,68.34,70.77,67.64,70.79z M25.62,70.86
		c-0.61,0.02-1.22,0.21-1.76,0.6c-1.41,1.03-1.73,3.02-0.7,4.44c1.03,1.42,3.02,1.74,4.43,0.7c1.42-1.03,1.74-3.01,0.71-4.43
		C27.65,71.29,26.63,70.83,25.62,70.86z M33.33,71.44c-0.68,0-1.36,0.26-1.87,0.77h0c-1.03,1.03-1.03,2.71,0,3.74
		c1.04,1.04,2.71,1.03,3.74,0c1.04-1.03,1.04-2.71,0-3.74C34.68,71.7,34.01,71.44,33.33,71.44z M66.61,76.75
		c-0.34,0.02-0.69,0.11-1.01,0.28c-1.31,0.66-1.81,2.25-1.16,3.56c0.67,1.3,2.26,1.82,3.56,1.15c1.29-0.67,1.82-2.25,1.15-3.56
		C68.65,77.21,67.63,76.68,66.61,76.75z M64.67,83.44c-0.41-0.04-0.84,0.01-1.25,0.14c-1.67,0.54-2.58,2.33-2.04,4
		c0.54,1.66,2.33,2.58,4,2.04c1.66-0.54,2.58-2.33,2.04-4C67.01,84.37,65.9,83.54,64.67,83.44z M60.38,90.89
		c-0.25-0.01-0.51,0-0.77,0.04c-2.08,0.33-3.5,2.28-3.17,4.36c0.33,2.08,2.28,3.49,4.36,3.16c2.08-0.33,3.49-2.28,3.16-4.35
		C63.67,92.29,62.14,90.97,60.38,90.89z M53.71,98.38c-2.49,0-4.51,2.03-4.51,4.52c0,2.49,2.02,4.51,4.51,4.51
		c2.5,0,4.51-2.02,4.51-4.51C58.22,100.41,56.21,98.38,53.71,98.38z"/>
	<path class="st0" d="M53.71,0c-2.49,0-4.51,2.02-4.51,4.51c0,2.49,2.02,4.51,4.51,4.51c2.5,0,4.51-2.02,4.51-4.51
		C58.22,2.02,56.21,0,53.71,0z M47.39,8.9c-0.25-0.01-0.51,0-0.77,0.04c-2.08,0.33-3.5,2.28-3.17,4.36c0.33,2.08,2.28,3.5,4.36,3.17
		c2.08-0.33,3.49-2.28,3.17-4.36C50.68,10.3,49.16,8.98,47.39,8.9z M43.29,17.65c-0.41-0.04-0.84,0.01-1.25,0.14
		c-1.67,0.54-2.58,2.33-2.04,4c0.54,1.66,2.33,2.58,4,2.04c1.66-0.54,2.58-2.33,2.04-4C45.63,18.58,44.52,17.75,43.29,17.65z
		 M40.43,25.39c-0.34,0.03-0.69,0.12-1.01,0.28c-1.3,0.66-1.82,2.25-1.16,3.55c0.67,1.31,2.26,1.82,3.56,1.16
		c1.3-0.67,1.82-2.26,1.16-3.56C42.48,25.84,41.46,25.31,40.43,25.39z M81.58,30.2c-0.61,0.02-1.22,0.22-1.75,0.6
		c-1.43,1.03-1.74,3.02-0.71,4.43c1.03,1.42,3.02,1.73,4.43,0.71c1.42-1.04,1.74-3.02,0.71-4.43C83.62,30.63,82.6,30.17,81.58,30.2z
		 M74.09,30.68c-0.68,0-1.35,0.26-1.87,0.78c-1.04,1.03-1.04,2.71,0,3.74c1.03,1.03,2.7,1.03,3.74,0c1.03-1.03,1.03-2.71,0-3.74
		C75.44,30.94,74.77,30.68,74.09,30.68z M90.42,31.06c-0.49,0.03-0.99,0.17-1.46,0.41c-1.88,0.95-2.62,3.25-1.67,5.13
		c0.95,1.87,3.25,2.62,5.12,1.66c1.88-0.96,2.62-3.25,1.67-5.12C93.36,31.73,91.9,30.96,90.42,31.06z M39.63,32.24
		c-0.42,0.01-0.84,0.15-1.21,0.42c-0.98,0.71-1.19,2.08-0.48,3.06c0.71,0.97,2.08,1.19,3.05,0.48c0.97-0.71,1.19-2.08,0.48-3.05
		C41.03,32.53,40.33,32.22,39.63,32.24z M67.79,32.24c-0.7-0.02-1.4,0.29-1.84,0.9c-0.72,0.98-0.49,2.34,0.48,3.05
		c0.98,0.71,2.35,0.49,3.05-0.48c0.72-0.97,0.49-2.35-0.48-3.06C68.63,32.39,68.21,32.26,67.79,32.24z M6.54,34.01
		c-1.75,0.15-3.33,1.33-3.91,3.1c-0.77,2.37,0.53,4.92,2.9,5.69c2.37,0.77,4.92-0.52,5.69-2.9c0.77-2.37-0.53-4.91-2.9-5.69
		C7.72,34.02,7.12,33.95,6.54,34.01z M100.88,34.01c-0.58-0.05-1.19,0.01-1.78,0.2c-2.37,0.78-3.67,3.32-2.9,5.69
		c0.78,2.37,3.32,3.67,5.69,2.9c2.38-0.77,3.67-3.31,2.9-5.69C104.2,35.33,102.63,34.16,100.88,34.01z M62.73,34.45
		c-0.7-0.05-1.39,0.32-1.73,0.98c-0.45,0.89-0.1,1.97,0.79,2.42c0.88,0.45,1.96,0.1,2.42-0.79c0.45-0.88,0.1-1.97-0.79-2.42
		C63.2,34.52,62.96,34.46,62.73,34.45z M39.85,38.04c-0.46,0-0.92,0.18-1.28,0.53c-0.7,0.71-0.7,1.84,0,2.55
		c0.7,0.7,1.84,0.7,2.55,0c0.7-0.7,0.7-1.84,0-2.55C40.77,38.22,40.31,38.04,39.85,38.04z M12.54,43.41
		c-1.77,0.08-3.3,1.39-3.59,3.21c-0.32,2.08,1.09,4.03,3.17,4.36c2.08,0.33,4.03-1.08,4.36-3.16c0.33-2.08-1.08-4.03-3.16-4.36
		C13.05,43.41,12.79,43.39,12.54,43.41z M19.12,50.53c-1.75,0-3.18,1.42-3.18,3.17c0,1.76,1.42,3.17,3.18,3.17
		c1.75,0,3.17-1.42,3.17-3.17C22.29,51.95,20.87,50.53,19.12,50.53z M72.98,54.98c-0.83,0.03-1.55,0.66-1.69,1.51
		c-0.16,0.99,0.51,1.91,1.49,2.06c0.98,0.15,1.9-0.51,2.06-1.5c0.16-0.99-0.51-1.91-1.5-2.05C73.23,54.98,73.1,54.97,72.98,54.98z
		 M25.36,55.57c-0.18-0.01-0.36,0-0.54,0.03c-1.44,0.23-2.42,1.58-2.19,3.03c0.22,1.44,1.58,2.42,3.02,2.2
		c1.45-0.23,2.43-1.58,2.2-3.03C27.65,56.54,26.59,55.63,25.36,55.57z M31.24,58.89c-0.28-0.02-0.58,0.01-0.86,0.1
		c-1.15,0.37-1.78,1.61-1.41,2.76c0.37,1.15,1.6,1.77,2.75,1.4c1.15-0.37,1.78-1.61,1.41-2.75C32.85,59.53,32.09,58.96,31.24,58.89z
		 M76.18,58.89c-0.85,0.07-1.62,0.64-1.9,1.5c-0.37,1.14,0.26,2.38,1.41,2.75c1.15,0.37,2.39-0.25,2.75-1.4
		c0.38-1.15-0.25-2.38-1.39-2.76C76.76,58.9,76.47,58.87,76.18,58.89z M36.12,60.81c-0.23,0.02-0.46,0.08-0.68,0.19
		c-0.9,0.45-1.25,1.53-0.79,2.42c0.45,0.88,1.53,1.23,2.41,0.78c0.89-0.45,1.24-1.53,0.79-2.42C37.5,61.13,36.81,60.76,36.12,60.81z
		 M79.58,64.15c-1.03-0.07-2.05,0.46-2.55,1.44c-0.67,1.3-0.14,2.9,1.16,3.56c1.3,0.66,2.9,0.14,3.56-1.16
		c0.67-1.3,0.15-2.9-1.16-3.56C80.27,64.27,79.92,64.18,79.58,64.15z M81.8,70.86c-1.02-0.03-2.03,0.42-2.68,1.31
		c-1.03,1.41-0.72,3.4,0.71,4.43c1.42,1.03,3.4,0.72,4.43-0.7c1.03-1.42,0.72-3.4-0.71-4.44C83.02,71.08,82.41,70.88,81.8,70.86z
		 M56.86,71.27c-0.12-0.01-0.24,0-0.37,0.02c-0.98,0.16-1.65,1.08-1.49,2.06c0.16,0.98,1.07,1.65,2.06,1.49
		c0.99-0.16,1.65-1.08,1.49-2.06C58.42,71.93,57.7,71.3,56.86,71.27z M53.71,75.35c-1.21,0-2.19,0.98-2.19,2.19
		c0,1.21,0.98,2.19,2.19,2.19c1.21,0,2.19-0.98,2.19-2.19C55.9,76.32,54.92,75.35,53.71,75.35z M83.06,79.25
		c-0.97,0-1.95,0.37-2.7,1.11c-1.49,1.49-1.49,3.9,0,5.39c1.49,1.49,3.89,1.48,5.39,0c1.49-1.49,1.49-3.9,0-5.39
		C85.01,79.62,84.03,79.25,83.06,79.25z M49.08,79.53c-1.23,0.06-2.29,0.97-2.49,2.23c-0.23,1.44,0.75,2.8,2.2,3.03
		c1.44,0.23,2.79-0.75,3.03-2.2c0.24-1.44-0.76-2.79-2.2-3.02C49.43,79.53,49.26,79.52,49.08,79.53z M42.75,83.44
		c-1.23,0.11-2.34,0.93-2.75,2.18c-0.54,1.67,0.37,3.46,2.04,4c1.67,0.54,3.46-0.38,4-2.04c0.54-1.67-0.38-3.46-2.04-4
		C43.58,83.45,43.16,83.4,42.75,83.44z M35.14,86.89c-1.48-0.1-2.95,0.67-3.67,2.07c-0.95,1.87-0.21,4.16,1.67,5.12
		c1.88,0.96,4.17,0.21,5.12-1.66c0.95-1.88,0.21-4.17-1.67-5.13C36.12,87.05,35.63,86.92,35.14,86.89z M24.95,88.99
		c-1.45-0.05-2.89,0.6-3.81,1.86c-1.47,2.02-1.01,4.84,1,6.3c2.02,1.46,4.84,1.02,6.31-1c1.47-2.02,1.01-4.84-1-6.31
		C26.69,89.3,25.82,89.02,24.95,88.99z M82.46,88.99c-0.87,0.03-1.74,0.31-2.49,0.86c-2.02,1.46-2.46,4.29-0.99,6.31
		c1.47,2.02,4.28,2.47,6.31,1c2.01-1.46,2.46-4.29,1-6.3C85.36,89.59,83.91,88.94,82.46,88.99z"/>
	<path class="st0" d="M68.52,2.42c-1.75,0.15-3.33,1.32-3.9,3.11c-0.77,2.37,0.52,4.92,2.9,5.69c2.37,0.77,4.92-0.53,5.69-2.9
		c0.76-2.37-0.53-4.91-2.91-5.68C69.71,2.43,69.1,2.37,68.52,2.42z M60.03,8.9c-1.77,0.08-3.3,1.39-3.59,3.21
		c-0.33,2.08,1.09,4.03,3.16,4.36c2.07,0.33,4.03-1.09,4.36-3.16c0.32-2.09-1.09-4.03-3.17-4.36C60.54,8.91,60.28,8.89,60.03,8.9z
		 M53.71,15.94c-1.76,0-3.17,1.42-3.17,3.17c0,1.76,1.42,3.18,3.17,3.18c1.75,0,3.17-1.42,3.17-3.18
		C56.88,17.36,55.46,15.94,53.71,15.94z M14.07,20.28c-1.45-0.05-2.9,0.6-3.81,1.86c-1.46,2.01-1.01,4.84,1,6.3
		c2.02,1.47,4.84,1.02,6.3-1c1.47-2.02,1.03-4.84-0.99-6.31C15.81,20.59,14.94,20.31,14.07,20.28z M49.32,22.6
		c-0.18-0.01-0.35,0-0.54,0.03c-1.44,0.23-2.43,1.58-2.2,3.02c0.23,1.44,1.59,2.43,3.03,2.2c1.44-0.23,2.42-1.58,2.2-3.03
		C51.61,23.56,50.55,22.65,49.32,22.6z M46.53,28.87c-0.28-0.02-0.57,0-0.86,0.1c-1.15,0.37-1.78,1.61-1.4,2.76
		c0.37,1.15,1.6,1.78,2.75,1.4c1.15-0.37,1.78-1.61,1.41-2.76C48.14,29.51,47.38,28.94,46.53,28.87z M17,31.06
		c-1.48-0.1-2.95,0.67-3.67,2.07c-0.95,1.88-0.21,4.17,1.67,5.12c1.88,0.96,4.17,0.21,5.13-1.66c0.96-1.87,0.21-4.17-1.67-5.13
		C17.99,31.23,17.49,31.1,17,31.06z M44.68,34.45c-0.23,0.02-0.47,0.08-0.69,0.2c-0.88,0.45-1.23,1.53-0.79,2.41
		c0.46,0.89,1.53,1.24,2.42,0.79c0.88-0.45,1.24-1.54,0.79-2.42C46.08,34.76,45.38,34.4,44.68,34.45z M72.91,37.52
		c-0.42,0.01-0.84,0.15-1.21,0.42c-0.98,0.71-1.2,2.07-0.49,3.05c0.71,0.97,2.08,1.2,3.05,0.49c0.98-0.71,1.19-2.08,0.48-3.05
		C74.31,37.8,73.61,37.49,72.91,37.52z M79.2,37.98c-0.34,0.02-0.69,0.12-1.01,0.28c-1.3,0.66-1.81,2.25-1.15,3.56
		c0.67,1.3,2.25,1.82,3.55,1.15c1.31-0.66,1.82-2.26,1.15-3.56C81.25,38.44,80.23,37.91,79.2,37.98z M67.57,38.05
		c-0.46,0-0.92,0.17-1.27,0.53c-0.71,0.71-0.71,1.85,0.01,2.55c0.69,0.7,1.83,0.71,2.54,0c0.71-0.71,0.71-1.85,0-2.54
		C68.49,38.23,68.03,38.05,67.57,38.05L67.57,38.05z M20.54,39.86c-1.23,0.1-2.34,0.93-2.74,2.18c-0.54,1.67,0.37,3.45,2.03,4
		c1.67,0.54,3.46-0.37,4-2.03c0.54-1.67-0.37-3.46-2.04-4C21.37,39.87,20.95,39.82,20.54,39.86z M86.88,39.86
		c-0.41-0.03-0.83,0.01-1.25,0.15c-1.67,0.53-2.58,2.33-2.04,4c0.54,1.66,2.33,2.58,4,2.03c1.66-0.54,2.58-2.33,2.04-4
		C89.21,40.79,88.11,39.96,86.88,39.86z M94.88,43.41c-0.25-0.01-0.51,0-0.77,0.04c-2.09,0.33-3.5,2.28-3.17,4.36
		c0.33,2.08,2.28,3.49,4.36,3.16c2.08-0.33,3.5-2.28,3.17-4.36C98.18,44.8,96.65,43.49,94.88,43.41z M25.12,46.55
		c-1.23,0.05-2.29,0.97-2.49,2.23c-0.23,1.45,0.76,2.8,2.19,3.03c1.45,0.23,2.8-0.76,3.03-2.2c0.23-1.44-0.75-2.8-2.2-3.03
		C25.47,46.56,25.29,46.54,25.12,46.55z M102.91,49.19c-2.5,0-4.52,2.02-4.52,4.52c0,2.49,2.02,4.51,4.52,4.51
		c2.48,0,4.51-2.02,4.51-4.52C107.41,51.21,105.39,49.19,102.91,49.19z M29.88,51.52c-1.21,0-2.19,0.98-2.19,2.19
		s0.98,2.19,2.19,2.18c1.2,0,2.18-0.98,2.18-2.18S31.09,51.52,29.88,51.52z M34.43,54.98c-0.12-0.01-0.24,0-0.37,0.02
		c-0.98,0.16-1.66,1.07-1.49,2.05c0.16,0.98,1.08,1.65,2.06,1.5c0.97-0.16,1.65-1.08,1.49-2.06C35.99,55.63,35.27,55.02,34.43,54.98
		z M71.3,60.8c-0.7-0.05-1.4,0.32-1.74,0.98c-0.45,0.88-0.1,1.97,0.79,2.42c0.89,0.45,1.97,0.1,2.42-0.79
		c0.45-0.88,0.09-1.96-0.79-2.42C71.77,60.88,71.54,60.82,71.3,60.8z M73.06,65.53c-0.7-0.02-1.4,0.29-1.85,0.9
		c-0.71,0.97-0.49,2.35,0.49,3.06c0.98,0.71,2.35,0.5,3.05-0.49c0.71-0.97,0.5-2.34-0.48-3.05C73.9,65.68,73.48,65.54,73.06,65.53z
		 M50.56,71.26c-0.84,0.04-1.56,0.66-1.7,1.52c-0.15,0.98,0.52,1.89,1.5,2.06c0.98,0.16,1.9-0.52,2.06-1.5
		c0.15-0.98-0.52-1.89-1.5-2.06C50.8,71.27,50.68,71.26,50.56,71.26z M74.09,71.44c-0.68,0-1.35,0.26-1.87,0.78
		c-1.04,1.03-1.04,2.71,0,3.74c1.03,1.04,2.71,1.04,3.74,0c1.03-1.03,1.03-2.71,0-3.74C75.44,71.7,74.77,71.44,74.09,71.44
		L74.09,71.44z M46.16,74.19c-0.85,0.07-1.61,0.64-1.89,1.5c-0.38,1.15,0.24,2.39,1.4,2.76c1.15,0.37,2.38-0.26,2.76-1.41
		c0.37-1.15-0.26-2.38-1.41-2.75C46.73,74.2,46.44,74.17,46.16,74.19z M40.81,76.75c-1.03-0.07-2.05,0.46-2.55,1.44
		c-0.66,1.31-0.14,2.89,1.16,3.56c1.3,0.67,2.9,0.15,3.56-1.16c0.66-1.3,0.14-2.89-1.16-3.55C41.5,76.86,41.15,76.77,40.81,76.75z
		 M13.75,78.11c-0.87,0.03-1.74,0.31-2.5,0.86c-2.02,1.46-2.46,4.29-0.99,6.31c1.46,2.01,4.28,2.46,6.3,0.99
		c2.02-1.47,2.47-4.29,1-6.3C16.65,78.71,15.2,78.06,13.75,78.11z M33.49,78.51c-1.02-0.03-2.04,0.42-2.68,1.31
		c-1.03,1.41-0.71,3.4,0.7,4.43c1.42,1.03,3.41,0.72,4.44-0.7c1.03-1.42,0.71-3.41-0.71-4.44C34.71,78.73,34.1,78.53,33.49,78.51z
		 M73.93,78.51c-0.61,0.02-1.22,0.22-1.76,0.61c-1.41,1.03-1.73,3.02-0.7,4.44c1.03,1.42,3.01,1.73,4.43,0.7
		c1.42-1.03,1.73-3.02,0.7-4.43C75.96,78.94,74.94,78.48,73.93,78.51z M24.36,79.24c-0.97,0-1.95,0.37-2.69,1.12
		c-1.49,1.49-1.49,3.9,0,5.39c1.49,1.49,3.9,1.49,5.39,0c1.48-1.49,1.48-3.9,0-5.39C26.31,79.62,25.33,79.24,24.36,79.24z
		 M72.28,86.89c-0.49,0.03-0.99,0.17-1.46,0.4c-1.87,0.96-2.62,3.25-1.66,5.13c0.96,1.87,3.25,2.61,5.12,1.66
		c1.87-0.95,2.62-3.24,1.66-5.12C75.23,87.55,73.76,86.78,72.28,86.89z M69.3,95.99c-0.58-0.05-1.19,0.01-1.78,0.21
		c-2.37,0.77-3.67,3.31-2.9,5.68c0.77,2.37,3.32,3.67,5.69,2.9c2.37-0.77,3.67-3.32,2.91-5.69C72.63,97.32,71.05,96.15,69.3,95.99z"
		/>
	<path class="st0" d="M38.89,2.42c-0.58-0.05-1.19,0.02-1.78,0.21c-2.36,0.76-3.67,3.31-2.89,5.68c0.77,2.37,3.32,3.67,5.68,2.9
		c2.37-0.77,3.67-3.32,2.9-5.69C42.22,3.74,40.65,2.57,38.89,2.42z M34.59,12.92c-0.49,0.04-0.99,0.17-1.46,0.41
		c-1.87,0.95-2.62,3.24-1.66,5.12c0.95,1.88,3.24,2.62,5.12,1.66c1.87-0.95,2.62-3.24,1.67-5.12
		C37.54,13.59,36.07,12.82,34.59,12.92z M93.35,20.28c-0.87,0.03-1.74,0.31-2.5,0.86c-2.02,1.47-2.46,4.29-1,6.31
		c1.46,2.02,4.29,2.46,6.3,1c2.02-1.47,2.47-4.29,0.99-6.31C96.24,20.88,94.8,20.23,93.35,20.28z M83.06,20.55
		c-0.97,0-1.95,0.37-2.7,1.12c-1.49,1.49-1.49,3.9,0,5.39c1.49,1.48,3.9,1.48,5.39,0c1.49-1.49,1.49-3.9,0-5.38
		C85.01,20.92,84.03,20.55,83.06,20.55L83.06,20.55z M74.15,22.55c-1.02-0.03-2.03,0.42-2.68,1.31c-1.03,1.42-0.71,3.4,0.7,4.43
		c1.42,1.04,3.4,0.72,4.43-0.7c1.03-1.42,0.72-3.4-0.7-4.43C75.37,22.77,74.76,22.57,74.15,22.55z M33.27,22.55
		c-0.61,0.02-1.22,0.22-1.76,0.6c-1.41,1.03-1.73,3.01-0.7,4.43c1.03,1.42,3.02,1.73,4.43,0.7c1.42-1.03,1.73-3.01,0.71-4.43
		C35.3,22.97,34.29,22.52,33.27,22.55z M66.98,25.38c-1.03-0.07-2.05,0.46-2.54,1.44c-0.67,1.31-0.15,2.9,1.15,3.56
		c1.31,0.67,2.9,0.15,3.56-1.15c0.66-1.3,0.14-2.9-1.16-3.56C67.67,25.5,67.32,25.41,66.98,25.38z M60.88,28.87
		c-0.85,0.07-1.61,0.64-1.89,1.5c-0.37,1.15,0.26,2.39,1.4,2.76c1.15,0.37,2.38-0.25,2.76-1.4c0.37-1.15-0.25-2.38-1.4-2.75
		C61.46,28.87,61.17,28.84,60.88,28.87z M33.33,30.68c-0.68,0-1.36,0.26-1.87,0.78c-1.04,1.03-1.03,2.71,0,3.73
		c1.03,1.04,2.71,1.04,3.74,0c1.04-1.03,1.04-2.71,0-3.74C34.68,30.94,34,30.68,33.33,30.68z M56.69,32.55
		c-0.84,0.04-1.56,0.66-1.7,1.52c-0.15,0.97,0.52,1.89,1.49,2.06c0.99,0.15,1.92-0.51,2.07-1.5c0.15-0.97-0.52-1.89-1.5-2.05
		C56.93,32.55,56.81,32.54,56.69,32.55z M34.51,37.52c-0.7-0.02-1.4,0.29-1.84,0.9c-0.71,0.97-0.5,2.34,0.47,3.05
		c0.98,0.71,2.34,0.49,3.05-0.48c0.71-0.98,0.49-2.34-0.48-3.05C35.35,37.67,34.93,37.53,34.51,37.52z M36.37,43.01
		c-0.7-0.05-1.39,0.32-1.73,0.98c-0.45,0.88-0.1,1.96,0.79,2.42c0.89,0.46,1.97,0.1,2.42-0.78c0.45-0.89,0.1-1.97-0.79-2.42
		C36.84,43.09,36.6,43.03,36.37,43.01z M73.15,48.84c-0.12-0.01-0.24,0-0.36,0.02c-0.98,0.16-1.65,1.08-1.49,2.06
		c0.15,0.98,1.08,1.64,2.05,1.49c0.98-0.16,1.65-1.07,1.5-2.06C74.71,49.5,73.98,48.88,73.15,48.84z M4.52,49.19
		C2.02,49.19,0,51.21,0,53.71c0,2.5,2.02,4.52,4.52,4.52c2.49,0,4.51-2.02,4.51-4.52C9.03,51.21,7.01,49.19,4.52,49.19z
		 M77.54,51.52c-1.21,0-2.19,0.98-2.19,2.19s0.98,2.19,2.19,2.18c1.21,0,2.19-0.98,2.19-2.18S78.75,51.52,77.54,51.52z M82.05,55.57
		c-1.23,0.05-2.29,0.97-2.49,2.23c-0.23,1.44,0.75,2.79,2.2,3.02c1.45,0.23,2.8-0.76,3.03-2.2c0.23-1.45-0.75-2.8-2.2-3.03
		C82.41,55.57,82.23,55.56,82.05,55.57z M12.89,56.39c-0.25-0.01-0.51,0-0.77,0.04c-2.08,0.33-3.49,2.28-3.17,4.36
		c0.33,2.08,2.28,3.5,4.36,3.16c2.09-0.33,3.5-2.28,3.17-4.36C16.19,57.78,14.66,56.47,12.89,56.39z M21.08,61.23
		c-0.41-0.04-0.84,0.01-1.25,0.14c-1.67,0.55-2.58,2.34-2.03,4.01c0.54,1.66,2.33,2.58,3.99,2.03c1.67-0.54,2.58-2.33,2.04-4
		C23.42,62.16,22.31,61.34,21.08,61.23z M86.33,61.23c-1.23,0.11-2.34,0.94-2.75,2.19c-0.54,1.66,0.37,3.45,2.04,3.99
		c1.67,0.54,3.45-0.37,3.99-2.03c0.55-1.67-0.37-3.46-2.04-4.01C87.17,61.24,86.74,61.19,86.33,61.23z M27.84,64.15
		c-0.34,0.02-0.69,0.11-1.01,0.28c-1.3,0.66-1.82,2.26-1.16,3.56c0.67,1.31,2.26,1.82,3.56,1.16c1.31-0.66,1.82-2.26,1.16-3.55
		C29.88,64.62,28.86,64.08,27.84,64.15z M34.35,65.53c-0.42,0.01-0.84,0.15-1.21,0.41c-0.97,0.71-1.19,2.08-0.48,3.05
		c0.71,0.98,2.08,1.2,3.06,0.49c0.97-0.71,1.19-2.08,0.48-3.06C35.76,65.82,35.05,65.5,34.35,65.53z M39.85,65.77
		c-0.46,0-0.92,0.17-1.27,0.52c-0.7,0.71-0.7,1.84,0,2.54c0.71,0.7,1.84,0.7,2.54,0c0.71-0.71,0.71-1.85,0-2.55
		C40.77,65.94,40.31,65.77,39.85,65.77z M90.96,68.75c-1.48-0.1-2.95,0.67-3.67,2.07c-0.96,1.87-0.21,4.17,1.67,5.12
		c1.87,0.95,4.16,0.21,5.12-1.67c0.96-1.88,0.21-4.17-1.66-5.13C91.95,68.91,91.46,68.78,90.96,68.75z M62.47,69.37
		c-0.23,0.02-0.47,0.08-0.69,0.19c-0.87,0.45-1.23,1.53-0.78,2.42c0.45,0.89,1.54,1.24,2.42,0.79c0.88-0.46,1.24-1.53,0.79-2.42
		C63.87,69.69,63.18,69.32,62.47,69.37z M61.26,74.19c-0.28-0.02-0.57,0.01-0.86,0.1c-1.14,0.37-1.77,1.6-1.4,2.75
		c0.37,1.14,1.61,1.77,2.75,1.41c1.15-0.38,1.77-1.61,1.4-2.76C62.87,74.83,62.11,74.26,61.26,74.19z M93.66,78.11
		c-1.45-0.05-2.89,0.6-3.81,1.86c-1.47,2.01-1.02,4.84,1,6.3c2.02,1.47,4.84,1.02,6.3-0.99c1.47-2.02,1.02-4.85-0.99-6.31
		C95.4,78.42,94.53,78.14,93.66,78.11z M58.33,79.53c-0.18-0.01-0.35,0-0.54,0.03c-1.44,0.23-2.42,1.58-2.19,3.02
		c0.23,1.44,1.57,2.43,3.02,2.2c1.44-0.23,2.43-1.58,2.2-3.03C60.63,80.5,59.56,79.59,58.33,79.53z M53.71,85.12
		c-1.76,0-3.17,1.42-3.17,3.17c0,1.75,1.42,3.18,3.17,3.18c1.75,0,3.17-1.42,3.17-3.18C56.88,86.54,55.46,85.12,53.71,85.12z
		 M47.04,90.89c-1.77,0.08-3.3,1.39-3.59,3.21c-0.33,2.07,1.09,4.03,3.17,4.35c2.07,0.33,4.02-1.08,4.35-3.17
		c0.33-2.08-1.08-4.02-3.15-4.36C47.56,90.89,47.3,90.88,47.04,90.89z M38.12,95.99c-1.75,0.15-3.33,1.32-3.9,3.1
		c-0.77,2.37,0.52,4.91,2.89,5.69c2.37,0.77,4.92-0.53,5.69-2.9c0.77-2.37-0.53-4.91-2.9-5.68C39.31,96.01,38.7,95.94,38.12,95.99z"
		/>
</g>
</svg>
