<?xml version="1.0" encoding="utf-8"?>
<!-- Generator: Adobe Illustrator 24.0.0, SVG Export Plug-In . SVG Version: 6.00 Build 0)  -->
<svg version="1.1" id="Camada_1" xmlns="http://www.w3.org/2000/svg" xmlns:xlink="http://www.w3.org/1999/xlink" x="0px" y="0px"
	 viewBox="0 0 689.67 573.45" style="enable-background:new 0 0 689.67 573.45;" xml:space="preserve">
<style type="text/css">
	.st0{fill:#A0616A;}
	.st1{fill:#2F2E41;}
	.st2{fill:#E6E6E6;}
	.st3{fill:#FFB351;}
	.st4{fill:#FFFFFF;}
	.st5{fill:#3F3D56;}
	.st6{opacity:0.2;enable-background:new    ;}
	.st7{fill:#F2F2F2;}
	.st8{fill:#CCCCCC;}
	.st9{fill:#AA4500;}
</style>
<polygon class="st0" points="185.2,538.86 196.82,542.91 217.99,499.99 200.83,494.01 "/>
<path class="st1" d="M200.33,545.31l2.75-7.88l-3.12-0.88l-12.7-3.6l-2.94-0.83l-11.41,25.63l-0.61,1.37l8.26,2.88l0.76-1.31
	l3.43-5.97l0.87,7.47l0.19,1.64l21.89,7.63c2.72,0.93,5.67-0.5,6.63-3.21C216.73,564.26,201.78,548.58,200.33,545.31z"/>
<polygon class="st0" points="102.97,547.94 115.28,547.94 121.14,500.45 102.96,500.45 "/>
<path class="st1" d="M119.38,549.05v-8.35l-3.24,0.2l-13.18,0.78l-3.05,0.19l-2.33,27.96l-0.12,1.5h8.74l0.28-1.49l1.27-6.77
	l3.28,6.77l0.72,1.49h23.18c2.87-0.02,5.19-2.34,5.2-5.21C141.11,561.54,121.83,551.66,119.38,549.05z"/>
<path class="st1" d="M190.84,249.91l19.34,25.63c0,0-10.68-0.74,0,3.9s10.98,3,10.83,8.63s-11.04,4.79-5.59,10.55
	c5.44,5.76,41.91,82.35,41.91,82.35s-29.88,110.88-33.7,115.4s-8.1,0.25-3.83,4.52s9.61-1.07,4.27,4.27s-12.66,14.76-12.66,14.76
	l-21.51-3.02c0,0-23.5-22.43,13.88-59.81c0,0,9.41-37.4,5.24-37.39s-4.17,6.04-4.17-6.05v-12.09l-49.5-92.74
	c0,0-31.59-24.64-31.09-35.91C124.74,261.65,190.84,249.91,190.84,249.91z"/>
<path class="st1" d="M155.71,275.54c0,0,22.43,113.21,19.22,116.41s-3.2,11.24-3.2,11.24l-51.26,113.71l-20.29,1.07
	c-0.48-32.53-0.61-57.21,17.09-80.1l8.54-167.68L155.71,275.54z"/>
<path class="st2" d="M184.83,141.16l-24.44-19.3l0,0l-12.83-0.75l-19.04,12.2l-4.66,23.78l-11.03,26.78L129,256.15
	c0,0,1.52,5.19-2.46,5.81c-3.97,0.62-3.5,8.27-3.5,8.27s0.81,6.63-3.05,7.21c-3.86,0.58-14.15,0.58-5.15,12.16
	c9.01,11.58,80.23-32.21,80.23-32.21l10.35-54.28c0,0,20.06-26.95-1.54-42.38L184.83,141.16z"/>
<path class="st0" d="M78.13,305.26c-4.07-5.08-3.25-12.49,1.83-16.56c0.54-0.43,1.12-0.82,1.73-1.15l30.75-103.18l19.22,9.68
	l-33.48,98.9c2.74,5.94,0.15,12.98-5.78,15.72C87.42,310.96,81.52,309.55,78.13,305.26L78.13,305.26z"/>
<path class="st2" d="M132.93,132.36c0,0-5.5-2.92-9.25,9.72c-3.01,10.12-27.43,70.39-27.74,85.04c-4.13,0.88-7.15,4.44-7.33,8.66
	l30.19,4.05c5.28-4.45,6.66-10.46,4.62-12.24l6.56-17.9l27.35-56.96l-20.38-18.31L132.93,132.36z"/>
<path class="st0" d="M294.26,271.34c1.47-6.34-2.47-12.67-8.81-14.14c-0.68-0.16-1.36-0.25-2.06-0.29l-70.53-80.55l-14.96,17.85
	l72.96,74.69c0.09,6.54,5.47,11.77,12.01,11.67C288.35,280.5,293.05,276.68,294.26,271.34L294.26,271.34z"/>
<path class="st2" d="M170.07,139.14c0,0,3.69-5.01,12.55,4.76c7.09,7.82,55.17,51.6,61.79,64.68c4.11-1,8.37,0.91,10.35,4.64
	l-25.47,16.7c-6.68-1.73-10.53-6.55-9.46-9.04l-13.65-13.31l-49.29-39.54l10.46-25.33L170.07,139.14z"/>
<circle class="st0" cx="154.1" cy="83.87" r="27.73"/>
<path class="st1" d="M187.23,58.45c-3.43-3.7-8.9-4.67-13.39-2.37c0.56-3.12,1.12-6.23,1.67-9.35c-4.64-0.71-9.27-1.42-13.91-2.13
	c-7-1.07-14.2-2.13-21.08-0.47c-10.04,2.57-17.83,10.48-20.24,20.56c-8.85-6-20.89-3.69-26.89,5.16c-2.41,3.55-3.57,7.8-3.3,12.08
	c0.33,5.32,2.82,10.22,4.36,15.33c5.85,19.39-3.84,42.27-21.82,51.56c5.79,4.39,11.78,8.88,18.79,10.8
	c7.02,1.91,15.4,0.66,20.02-4.96c2.36-2.87,3.5-6.53,4.59-10.09c4.4-14.38,8.8-28.77,13.2-43.15l7.11,12.84
	c2.27,3.18,1.46,7.62-0.18,11.16c-1.64,3.54-4.01,6.83-4.74,10.66s0.97,8.59,4.78,9.43c5.15-12.11,10.41-25.02,8.41-38.03
	c-0.78-5.06-2.64-10.26-1.18-15.16c1.13-3.79,4.12-6.78,7.45-8.93c3.48-2.24,7.39-3.74,11.48-4.4c9.04-1.44,20.29,0.49,25.59-6.96
	C190.77,67.85,190.48,62.31,187.23,58.45z"/>
<circle class="st3" cx="169.6" cy="206.72" r="23.48"/>
<path class="st4" d="M175.08,194.9c0.12,0.51,0.31,1,0.56,1.47c0.42,1.07,1.41,1.81,2.55,1.92c0.09,0,0.19-0.02,0.28-0.04
	c1-0.25,1.62-1.46,1.63-2.98c0-0.53-0.06-1.05-0.19-1.56c-0.12-0.51-0.31-0.99-0.55-1.45c-0.71-1.35-1.83-2.15-2.83-1.9
	C175.19,190.69,174.55,192.72,175.08,194.9z"/>
<path class="st5" d="M176.89,196.36c0.19,0.78,0.65,1.46,1.3,1.93c0.09,0,0.19-0.02,0.28-0.04c1-0.25,1.62-1.46,1.63-2.98
	c0-0.53-0.06-1.05-0.19-1.56c-0.12-0.51-0.31-0.99-0.55-1.45C177.55,192.72,176.44,194.55,176.89,196.36z"/>
<path class="st4" d="M165.09,197.36c0.52,2.09,1.93,3.56,3.22,3.38c0.05-0.01,0.11-0.02,0.16-0.03c1.33-0.33,1.97-2.36,1.44-4.54
	c-0.12-0.5-0.31-0.99-0.55-1.45c-0.71-1.35-1.83-2.15-2.83-1.9C165.2,193.15,164.56,195.19,165.09,197.36z"/>
<path class="st5" d="M167,198.8c0.19,0.78,0.66,1.48,1.32,1.95c0.05-0.01,0.11-0.02,0.16-0.03c1.33-0.33,1.97-2.36,1.44-4.54
	c-0.12-0.5-0.31-0.99-0.55-1.45C167.61,195.22,166.57,197.03,167,198.8z"/>
<path class="st4" d="M184.88,204.25c1.43,5.79-0.83,11.33-5.06,12.37s-8.8-2.81-10.23-8.6C174.8,209.33,179.9,208.15,184.88,204.25z
	"/>
<path class="st6" d="M146.8,212.39c-2.37-9.59,1.52-19.64,9.73-25.14c-8.52,9.78-7.49,24.62,2.29,33.14c8,6.96,19.67,7.7,28.48,1.81
	c-8.52,9.78-23.35,10.8-33.12,2.29C150.53,221.3,147.96,217.08,146.8,212.39z"/>
<path class="st7" d="M680.31,556.11c-1.25,0.06-2.31-0.91-2.37-2.16c-0.03-0.67,0.24-1.32,0.73-1.77l0.16-0.62
	c-0.02-0.05-0.04-0.1-0.06-0.15c-1.31-3.1-4.89-4.55-7.99-3.24c-1.47,0.62-2.64,1.8-3.25,3.28c-1.84,4.43-4.18,8.86-4.76,13.55
	c-0.25,2.07-0.15,4.17,0.32,6.2c-4.32-9.42-6.56-19.66-6.58-30.02c0-2.6,0.14-5.2,0.43-7.78c0.24-2.12,0.57-4.22,0.99-6.31
	c2.31-11.33,7.28-21.95,14.5-30.99c3.49-1.91,6.32-4.84,8.09-8.4c0.64-1.28,1.1-2.65,1.35-4.06c-0.39,0.05-1.49-5.95-1.19-6.32
	c-0.55-0.83-1.53-1.25-2.13-2.06c-2.98-4.04-7.09-3.34-9.24,2.16c-4.58,2.31-4.63,6.15-1.81,9.84c1.79,2.35,2.03,5.52,3.6,8.03
	c-0.16,0.21-0.33,0.41-0.49,0.61c-2.95,3.8-5.52,7.87-7.68,12.17c0.52-4.81-0.1-9.68-1.83-14.21c-1.75-4.22-5.02-7.77-7.91-11.41
	c-2.13-2.74-6.08-3.22-8.81-1.09c-1.31,1.02-2.17,2.53-2.37,4.18c-0.01,0.05-0.01,0.11-0.02,0.16c0.43,0.24,0.85,0.5,1.26,0.77
	c1.41,0.94,1.79,2.86,0.85,4.27c-0.48,0.72-1.24,1.2-2.09,1.33l-0.06,0.01c0.15,1.54,0.42,3.08,0.81,4.58
	c-3.7,14.32,4.29,19.53,15.7,19.76c0.25,0.13,0.5,0.26,0.75,0.38c-2.17,6.14-3.53,12.54-4.04,19.03c-0.29,3.83-0.28,7.68,0.05,11.5
	l-0.02-0.14c-0.83-4.26-3.1-8.09-6.43-10.87c-4.95-4.06-11.93-5.56-17.27-8.82c-1.64-1.05-3.83-0.58-4.88,1.06
	c-0.45,0.7-0.64,1.54-0.53,2.37l0.02,0.14c0.8,0.32,1.57,0.7,2.32,1.12c0.43,0.24,0.85,0.5,1.26,0.77c1.41,0.94,1.79,2.86,0.85,4.27
	c-0.48,0.72-1.24,1.2-2.09,1.33l-0.06,0.01c-0.05,0.01-0.08,0.01-0.13,0.02c1.36,3.24,3.27,6.23,5.64,8.83
	c2.31,12.5,12.26,13.68,22.89,10.04h0.01c1.17,5.07,2.86,10.01,5.04,14.73h18.02c0.06-0.2,0.12-0.41,0.18-0.61
	c-1.67,0.1-3.34,0.01-4.99-0.3c1.34-1.64,2.67-3.29,4.01-4.93c0.03-0.03,0.06-0.06,0.08-0.1c0.68-0.84,1.36-1.67,2.04-2.51l0,0
	C681.23,561.18,680.93,558.61,680.31,556.11L680.31,556.11z"/>
<path class="st8" d="M0,572.26c0,0.66,0.53,1.19,1.18,1.19c0,0,0,0,0.01,0h687.29c0.66,0,1.19-0.53,1.19-1.19s-0.53-1.19-1.19-1.19
	H1.19C0.53,571.06,0,571.59,0,572.26C0,572.25,0,572.25,0,572.26z"/>
<polygon class="st9" points="486.96,555.88 472.45,555.88 465.55,499.92 486.96,499.92 "/>
<path class="st1" d="M487.47,571.01l-44.61,0v-0.56c0-9.59,7.77-17.36,17.36-17.36h0l8.15-6.18l15.2,6.18l3.89,0L487.47,571.01z"/>
<polygon class="st9" points="550.24,555.88 535.74,555.88 528.84,499.92 550.25,499.92 "/>
<path class="st1" d="M550.75,571.01l-44.61,0v-0.56c0-9.59,7.77-17.36,17.36-17.36h0l8.15-6.18l15.2,6.18l3.89,0L550.75,571.01z"/>
<path class="st1" d="M450.84,250.99c0,0-13.96,42.87-11.38,48.51s6.97,1.25,2.58,5.64s-8.23-0.28-4.12,7.19
	c4.12,7.46,10.35,68.91,13.1,71.89s6.51,3.05,3.16,5.94s-7.75-2.97-3.35,2.89s16.06,141.06,16.06,141.06h22.79
	c0,0,5.67-6.54,2.46-10.8s0.28-5.9,0-8.74s0.79-8.97,0.98-11.77s4.05-69.42-5.2-107.9l16.87-73.28l20.43,88.57
	c0,0-9.4,74.29,0,98.17c0,0-7.58,6.31-4.22,9.97s6.29,0.73,3.36,3.66s4.4,13.19,4.4,13.19l24.91-1.47l14.1-138.8
	c0,0,2.38-14.48,0-16.96s-2.38,6.31-2.38-2.48v-11.72c0,0-1.38-72.09-1.56-76.34c-0.18-4.25-17.77-35.01-17.77-35.01L450.84,250.99z
	"/>
<path class="st3" d="M451.05,102.93v84.53c2.73,8.18,4.14,16.75,4.17,25.38c-0.09,14.37-3.25,30.93-3.24,38.17
	c-0.04,0.96,0.06,1.92,0.31,2.85c13.99,40.55,88.02,3.7,94.75,0.25c0.32-0.16,0.49-0.25,0.49-0.25l-1.46-45.42l0.25-13.06
	l1.73-89.59l-1.55-1.24l-13.58-10.83l-1.33-1.06l-4.08,5.95l-36.37-2.5l-13.88-3.84l-4.33,1.76l-19.52,7.94L451.05,102.93z"/>
<path class="st9" d="M429.51,273.01l4.78-26.42l15.47,0.63l-6.05,27.75c2.42,4.33,0.88,9.81-3.45,12.23
	c-4.33,2.42-9.81,0.88-12.23-3.45C426.07,280.23,426.68,275.85,429.51,273.01L429.51,273.01z"/>
<path class="st3" d="M453.42,102.75L453.42,102.75c7.95,2.06,12.49,12.36,15.28,20.09c3.6,9.92-2.24,71.1-9.33,80.02
	c-5.5,6.92-4.2,5.59-2.38,11.32s6.01,0.14,2.23,8.67s-6.99,6.99-4.48,10.62s5.45,3.22,2.23,8.67s-2.94,7.41-3.64,9.5
	s-1.54,17.19-1.54,17.19s-16.35-2.66-24.88,0.55c0,0,5.87-14.82,3.5-17.47s-5.45-3.22-2.93-6.57s7.55-3.07,2.24-5.31
	s-0.83-33.83-0.83-33.83c-5.96-20.79-1.81-51.9,4.23-84.91C434.97,111.26,443.26,103.67,453.42,102.75z"/>
<path class="st9" d="M556.6,271.25l1.16-26.82l15.41-1.48l-2.23,28.31c2.99,3.96,2.2,9.6-1.76,12.59c-3.96,2.99-9.6,2.2-12.59-1.76
	C554.17,278.88,554.18,274.45,556.6,271.25L556.6,271.25z"/>
<path class="st3" d="M540.49,103.18l0.43,0.05c8.16,0.96,15.31,5.89,19.13,13.16c4.91,9.34,20.43,72.63,16.63,81.31
	c-3.54,8.1-3.4,6.11-0.82,11.54s5.97-0.67,3.39,8.28s-5.98,7.87-2.99,11.13s5.84,2.45,3.39,8.28s-1.91,7.74-2.31,9.91
	s0.8,17.24,0.8,17.24s-16.56-0.42-24.58,3.92c0,0,3.81-15.48,1.1-17.79s-5.84-2.45-3.8-6.11s7.06-4.07,1.5-5.57
	s-5.41-33.4-5.41-33.4L540.49,103.18z"/>
<path class="st9" d="M500.78,69c0.65,0.15,1.3,0.28,1.95,0.38c1.99,0.33,4,0.43,6.01,0.31c15.64-0.84,27.64-14.2,26.8-29.85
	s-14.2-27.64-29.85-26.8c-12.34,0.66-22.84,9.24-25.94,21.21c-0.06,0.23-0.12,0.45-0.17,0.68C476.04,50.19,485.52,65.44,500.78,69z"
	/>
<path class="st1" d="M526.96,65.65c3.95-3.09,4.33-8.97,7.7-12.68c5.63-6.2,8.27-12.88,5.33-20.23c-2.61-6.5-2.05-14.49-7.67-18.68
	c2.76-1,3.41-3.07,0.97-3.11c-1.64-0.03-7.76,3.11-4.82-0.8s-2.63-2.37-2.26-3.97s2.73-2.49,3.78-1.22
	c-3.33-3.9-10.6-3.07-12.96,1.48c-3.32-4.97-6.84-8.39-11.92-5.24c-4.99,3.1-4.92,6.93-10.28,6.01c-2.52-0.43-2.76,4.33-4.48,6.22
	s-4.24,3.35-6.75,2.88s-4.44-3.61-3.03-5.74l-5.92,13.51l-2.39-2.93c-3.79,2.47-2.55,8.92,1.27,11.36s11.11-3.19,13.18,0.83
	c3.27,6.35,10.93,3.14,16.19-1.34c6.38-5.44,14.08,11.1,11.01,18.9c3.19-3.13,9.09-0.53,10.74,3.62s0.44,8.83-0.78,13.13
	L526.96,65.65z"/>
<polygon class="st5" points="472.93,94.03 473.92,95.29 476.58,98.67 486.42,127.75 532.92,93.72 531.59,92.66 524.51,77.61 
	488.14,75.11 477.26,92.27 "/>
<path class="st4" d="M522.42,168.2c-2.34,25.16-19.1,44.18-37.44,42.47s-31.3-23.49-28.95-48.65
	C475.05,174.5,497.09,176.88,522.42,168.2z"/>
<path class="st4" d="M479.11,138.27c-0.09,1.5-0.37,2.97-0.82,4.4c-1.21,3.74-3.56,6.38-6.2,6.69c-0.27,0.04-0.54,0.05-0.8,0.03
	c-2.94-0.19-5.28-3.3-6.07-7.56c-0.26-1.48-0.35-2.98-0.25-4.47c0.09-1.48,0.36-2.95,0.81-4.36c1.33-4.14,4.05-6.95,7-6.76
	C476.7,126.49,479.53,131.88,479.11,138.27z"/>
<path class="st5" d="M474.76,143.29c-0.14,2.28-1.09,4.43-2.67,6.08c-0.27,0.04-0.54,0.05-0.8,0.03c-2.94-0.19-5.28-3.3-6.07-7.56
	c-0.26-1.48-0.35-2.98-0.25-4.47c0.09-1.48,0.36-2.95,0.81-4.36C471.1,133.37,475.11,137.97,474.76,143.29z"/>
<path class="st4" d="M508.41,140.17c-0.4,6.14-3.64,10.97-7.36,11.12c-0.16,0.01-0.31,0.01-0.47,0c-3.9-0.25-6.73-5.64-6.32-12.03
	c0.09-1.48,0.36-2.94,0.81-4.35c1.33-4.15,4.05-6.96,7-6.77C505.99,128.39,508.82,133.78,508.41,140.17z"/>
<path class="st5" d="M503.77,145.16c-0.14,2.3-1.11,4.47-2.72,6.13c-0.16,0.01-0.31,0.01-0.47,0c-3.9-0.25-6.73-5.64-6.32-12.03
	c0.09-1.48,0.36-2.94,0.81-4.35C500.27,135.42,504.11,139.96,503.77,145.16z"/>
<circle class="st3" cx="261.99" cy="68.11" r="13.82"/>
<path class="st4" d="M263.74,62.34c-0.01,0.31,0.01,0.62,0.07,0.92c0.06,0.67,0.49,1.26,1.12,1.51c0.05,0.01,0.11,0.02,0.16,0.02
	c0.61,0.03,1.16-0.56,1.41-1.41c0.09-0.3,0.14-0.6,0.15-0.91c0.01-0.31-0.01-0.61-0.07-0.91c-0.18-0.88-0.67-1.52-1.28-1.54
	C264.5,59.98,263.8,61.02,263.74,62.34z"/>
<path class="st7" d="M264.52,63.47c-0.02,0.47,0.12,0.93,0.41,1.31c0.05,0.01,0.11,0.02,0.16,0.02c0.61,0.03,1.16-0.56,1.41-1.41
	c0.09-0.3,0.14-0.6,0.15-0.91c0.01-0.31-0.01-0.61-0.07-0.91C265.5,61.52,264.57,62.37,264.52,63.47z"/>
<path class="st4" d="M257.69,62.08c-0.06,1.27,0.5,2.33,1.26,2.45c0.03,0.01,0.06,0.01,0.1,0.01c0.81,0.04,1.51-1.01,1.57-2.33
	c0.01-0.31-0.01-0.61-0.07-0.91c-0.18-0.88-0.67-1.52-1.28-1.54C258.45,59.71,257.75,60.76,257.69,62.08z"/>
<path class="st7" d="M258.53,63.2c-0.02,0.48,0.13,0.94,0.42,1.32c0.03,0.01,0.06,0.01,0.1,0.01c0.81,0.04,1.51-1.01,1.57-2.33
	c0.01-0.31-0.01-0.61-0.07-0.91C259.47,61.29,258.58,62.13,258.53,63.2z"/>
<path class="st4" d="M267.72,69.25c-0.16,3.51-2.35,6.26-4.91,6.15s-4.5-3.05-4.35-6.56C261.3,70.47,264.75,70.63,267.72,69.25z"/>
<circle class="st3" cx="334.99" cy="211.11" r="13.82"/>
<path class="st4" d="M336.74,205.34c-0.01,0.31,0.01,0.62,0.07,0.92c0.06,0.67,0.49,1.26,1.12,1.51c0.05,0.01,0.11,0.02,0.16,0.02
	c0.61,0.03,1.16-0.56,1.41-1.41c0.09-0.3,0.14-0.6,0.15-0.91c0.01-0.31-0.01-0.61-0.07-0.91c-0.18-0.88-0.67-1.52-1.28-1.54
	C337.5,202.98,336.8,204.02,336.74,205.34z"/>
<path class="st7" d="M337.52,206.47c-0.02,0.47,0.12,0.93,0.41,1.31c0.05,0.01,0.11,0.02,0.16,0.02c0.61,0.03,1.16-0.56,1.41-1.41
	c0.09-0.3,0.14-0.6,0.15-0.91c0.01-0.31-0.01-0.61-0.07-0.91C338.5,204.52,337.57,205.37,337.52,206.47z"/>
<path class="st4" d="M330.69,205.08c-0.06,1.27,0.5,2.33,1.26,2.45c0.03,0.01,0.06,0.01,0.1,0.01c0.81,0.04,1.51-1.01,1.57-2.33
	c0.01-0.31-0.01-0.61-0.07-0.91c-0.18-0.88-0.67-1.52-1.28-1.54C331.45,202.71,330.75,203.76,330.69,205.08z"/>
<path class="st7" d="M331.53,206.2c-0.02,0.48,0.13,0.94,0.42,1.32c0.03,0.01,0.06,0.01,0.1,0.01c0.81,0.04,1.51-1.01,1.57-2.33
	c0.01-0.31-0.01-0.61-0.07-0.91C332.47,204.29,331.58,205.13,331.53,206.2z"/>
<path class="st4" d="M340.72,212.25c-0.16,3.51-2.35,6.26-4.91,6.15s-4.5-3.05-4.35-6.56C334.3,213.47,337.75,213.63,340.72,212.25z
	"/>
<circle class="st3" cx="600.99" cy="49.11" r="13.82"/>
<path class="st4" d="M602.74,43.34c-0.01,0.31,0.01,0.62,0.07,0.92c0.06,0.67,0.49,1.26,1.12,1.51c0.05,0.01,0.11,0.02,0.16,0.02
	c0.61,0.03,1.16-0.56,1.41-1.41c0.09-0.3,0.14-0.6,0.15-0.91c0.01-0.31-0.01-0.61-0.07-0.91c-0.18-0.88-0.67-1.52-1.28-1.54
	C603.5,40.98,602.8,42.02,602.74,43.34z"/>
<path class="st7" d="M603.52,44.47c-0.02,0.47,0.12,0.93,0.41,1.31c0.05,0.01,0.11,0.02,0.16,0.02c0.61,0.03,1.16-0.56,1.41-1.41
	c0.09-0.3,0.14-0.6,0.15-0.91c0.01-0.31-0.01-0.61-0.07-0.91C604.5,42.52,603.57,43.37,603.52,44.47z"/>
<path class="st4" d="M596.69,43.08c-0.06,1.27,0.5,2.33,1.26,2.45c0.03,0.01,0.06,0.01,0.1,0.01c0.81,0.04,1.51-1.01,1.57-2.33
	c0.01-0.31-0.01-0.61-0.07-0.91c-0.18-0.88-0.67-1.52-1.28-1.54C597.45,40.71,596.75,41.76,596.69,43.08z"/>
<path class="st7" d="M597.53,44.2c-0.02,0.48,0.13,0.94,0.42,1.32c0.03,0.01,0.06,0.01,0.1,0.01c0.81,0.04,1.51-1.01,1.57-2.33
	c0.01-0.31-0.01-0.61-0.07-0.91C598.47,42.29,597.58,43.13,597.53,44.2z"/>
<path class="st4" d="M606.72,50.25c-0.16,3.51-2.35,6.26-4.91,6.15s-4.5-3.05-4.35-6.56C600.3,51.47,603.75,51.63,606.72,50.25z"/>
<ellipse transform="matrix(0.9996 -0.0294 0.0294 0.9996 -12.2144 0.7374)" class="st3" cx="18.99" cy="416.11" rx="13.82" ry="13.82"/>
<path class="st4" d="M20.74,410.34c-0.01,0.31,0.01,0.62,0.07,0.92c0.06,0.67,0.49,1.26,1.12,1.51c0.05,0.01,0.11,0.02,0.16,0.02
	c0.61,0.03,1.16-0.56,1.41-1.41c0.09-0.3,0.14-0.6,0.15-0.91c0.01-0.31-0.01-0.61-0.07-0.91c-0.18-0.88-0.67-1.52-1.28-1.54
	C21.5,407.98,20.8,409.02,20.74,410.34z"/>
<path class="st7" d="M21.52,411.47c-0.02,0.47,0.12,0.93,0.41,1.31c0.05,0.01,0.11,0.02,0.16,0.02c0.61,0.03,1.16-0.56,1.41-1.41
	c0.09-0.3,0.14-0.6,0.15-0.91c0.01-0.31-0.01-0.61-0.07-0.91C22.5,409.52,21.57,410.37,21.52,411.47z"/>
<path class="st4" d="M14.69,410.08c-0.06,1.27,0.5,2.33,1.26,2.45c0.03,0.01,0.06,0.01,0.1,0.01c0.81,0.04,1.51-1.01,1.57-2.33
	c0.01-0.31-0.01-0.61-0.07-0.91c-0.18-0.88-0.67-1.52-1.28-1.54C15.45,407.71,14.75,408.76,14.69,410.08z"/>
<path class="st7" d="M15.53,411.2c-0.02,0.48,0.13,0.94,0.42,1.32c0.03,0.01,0.06,0.01,0.1,0.01c0.81,0.04,1.51-1.01,1.57-2.33
	c0.01-0.31-0.01-0.61-0.07-0.91C16.47,409.29,15.58,410.13,15.53,411.2z"/>
<path class="st4" d="M24.72,417.25c-0.16,3.51-2.35,6.26-4.91,6.15s-4.5-3.05-4.35-6.56C18.3,418.47,21.75,418.63,24.72,417.25z"/>
<circle class="st3" cx="21.99" cy="197.11" r="13.82"/>
<path class="st4" d="M23.74,191.34c-0.01,0.31,0.01,0.62,0.07,0.92c0.06,0.67,0.49,1.26,1.12,1.51c0.05,0.01,0.11,0.02,0.16,0.02
	c0.61,0.03,1.16-0.56,1.41-1.41c0.09-0.3,0.14-0.6,0.15-0.91c0.01-0.31-0.01-0.61-0.07-0.91c-0.18-0.88-0.67-1.52-1.28-1.54
	C24.5,188.98,23.8,190.02,23.74,191.34z"/>
<path class="st7" d="M24.52,192.47c-0.02,0.47,0.12,0.93,0.41,1.31c0.05,0.01,0.11,0.02,0.16,0.02c0.61,0.03,1.16-0.56,1.41-1.41
	c0.09-0.3,0.14-0.6,0.15-0.91c0.01-0.31-0.01-0.61-0.07-0.91C25.5,190.52,24.57,191.37,24.52,192.47z"/>
<path class="st4" d="M17.69,191.08c-0.06,1.27,0.5,2.33,1.26,2.45c0.03,0.01,0.06,0.01,0.1,0.01c0.81,0.04,1.51-1.01,1.57-2.33
	c0.01-0.31-0.01-0.61-0.07-0.91c-0.18-0.88-0.67-1.52-1.28-1.54C18.45,188.71,17.75,189.76,17.69,191.08z"/>
<path class="st7" d="M18.53,192.2c-0.02,0.48,0.13,0.94,0.42,1.32c0.03,0.01,0.06,0.01,0.1,0.01c0.81,0.04,1.51-1.01,1.57-2.33
	c0.01-0.31-0.01-0.61-0.07-0.91C19.47,190.29,18.58,191.13,18.53,192.2z"/>
<path class="st4" d="M27.72,198.25c-0.16,3.51-2.35,6.26-4.91,6.15s-4.5-3.05-4.35-6.56C21.3,199.47,24.75,199.63,27.72,198.25z"/>
</svg>
