<?xml version="1.0" encoding="utf-8"?>
<!-- Generator: Adobe Illustrator 24.0.0, SVG Export Plug-In . SVG Version: 6.00 Build 0)  -->
<svg version="1.1" id="Camada_1" xmlns="http://www.w3.org/2000/svg" xmlns:xlink="http://www.w3.org/1999/xlink" x="0px" y="0px"
	 viewBox="0 0 809.34 629.88" style="enable-background:new 0 0 809.34 629.88;" xml:space="preserve">
<style type="text/css">
	.st0{fill:#F0F0F0;}
	.st1{fill:#F2F2F2;}
	.st2{fill:#FFFFFF;}
	.st3{fill:#FF8B00;}
	.st4{fill:#E6E6E6;}
	.st5{fill:#FFB351;}
	.st6{fill:#C15C00;}
	.st7{fill:#2F2E41;}
	.st8{fill:#CACACA;}
	.st9{fill:#3F3D56;}
	.st10{fill:#BC740D;}
	.st11{fill:#9E616A;}
</style>
<path class="st0" d="M168.02,414.31c-36.59-36.02-52.05-73.6-43.52-105.82c10.94-41.34,59.56-69.92,133.39-78.42l0.27,2.37
	c-72.8,8.38-120.68,36.32-131.36,76.66c-8.3,31.35,6.93,68.11,42.89,103.51L168.02,414.31z"/>
<path class="st0" d="M521.07,542.18c-45.67,0-95.3-6.79-144.59-19.84c-60.96-16.14-116.85-40.5-161.63-70.44l1.33-1.98
	c44.57,29.8,100.21,54.05,160.92,70.12c54.86,14.52,110.13,21.25,159.82,19.48l0.09,2.38C531.74,542.08,526.44,542.18,521.07,542.18
	z"/>
<path class="st0" d="M625.84,527.17l-0.76-2.26c40.84-13.81,66.39-36.06,73.88-64.33c9.52-35.95-11.16-77.67-58.22-117.47
	c-47.3-40-115.51-73.19-192.06-93.46l0.61-2.31c76.89,20.36,145.43,53.72,192.99,93.95c47.8,40.43,68.75,83.01,58.99,119.9
	C693.56,490.27,667.48,513.09,625.84,527.17z"/>
<path class="st0" d="M250.79,543.17c-89.74-39.8-158.88-91.43-194.71-145.39l1.99-1.32c35.57,53.59,104.36,104.91,193.69,144.53
	L250.79,543.17z"/>
<path class="st0" d="M566.3,612.12c-9.26,0-18.67-0.21-28.24-0.62l0.1-2.38c71.43,3.09,134.46-5.46,182.28-24.73l0.89,2.21
	C679.61,603.41,626.45,612.12,566.3,612.12z"/>
<path class="st0" d="M514.23,232.21c-14.83-4.83-30.09-9.33-45.34-13.36c-87.79-23.24-174.09-31.49-249.57-23.86l-0.24-2.37
	c75.76-7.66,162.36,0.61,250.43,23.93c15.3,4.05,30.6,8.56,45.47,13.4L514.23,232.21z"/>
<path class="st0" d="M111.94,417.89c-36.59-36.02-52.05-73.6-43.52-105.82c10.94-41.34,59.56-69.92,133.39-78.42l0.27,2.37
	c-72.8,8.38-120.68,36.32-131.36,76.66c-8.3,31.35,6.93,68.11,42.89,103.51L111.94,417.89z"/>
<path class="st0" d="M464.98,545.76c-45.67,0-95.3-6.79-144.59-19.84c-60.96-16.14-116.85-40.5-161.63-70.44l1.33-1.98
	c44.57,29.8,100.21,54.05,160.92,70.12c54.86,14.52,110.13,21.25,159.82,19.48l0.09,2.38C475.66,545.66,470.35,545.76,464.98,545.76
	z"/>
<path class="st0" d="M569.75,530.75l-0.76-2.26c40.84-13.81,66.39-36.06,73.88-64.33c9.52-35.95-11.16-77.67-58.22-117.47
	c-47.3-40-115.51-73.19-192.06-93.46l0.61-2.31c76.89,20.36,145.43,53.72,192.99,93.95c47.8,40.43,68.75,83.01,58.99,119.9
	C637.47,493.85,611.39,516.67,569.75,530.75z"/>
<path class="st0" d="M194.71,546.75C104.97,506.95,35.82,455.32,0,401.36l1.99-1.32c35.57,53.59,104.36,104.91,193.69,144.53
	L194.71,546.75z"/>
<path class="st0" d="M510.21,615.7c-9.26,0-18.67-0.21-28.24-0.62l0.1-2.38c71.43,3.09,134.46-5.46,182.28-24.73l0.89,2.21
	C623.53,606.99,570.36,615.7,510.21,615.7z"/>
<path class="st0" d="M458.15,235.79c-14.83-4.83-30.09-9.33-45.34-13.36c-87.79-23.24-174.09-31.49-249.58-23.86l-0.24-2.37
	c75.76-7.66,162.36,0.61,250.43,23.93c15.3,4.05,30.6,8.56,45.47,13.4L458.15,235.79z"/>
<path class="st1" d="M40.68,353.97c17.15-19.23,44.51-30.95,69.3-23.93c-22.87,16.19-39.28,39.94-46.32,67.06
	c-2.68,10.47-4.57,22.39-13.27,28.79c-5.42,3.98-12.59,4.93-19.26,4.03c-6.66-0.91-12.96-3.5-19.18-6.07l-1.67,0.14
	C15.08,398.68,23.53,373.2,40.68,353.97z"/>
<path class="st2" d="M109.9,330.57c-20.73,5.02-39.35,16.44-53.21,32.64c-3.05,3.44-5.53,7.33-7.37,11.54
	c-1.65,4.16-2.17,8.68-1.48,13.11c0.56,4.14,1.61,8.3,1.15,12.5c-0.54,4.34-2.91,8.25-6.5,10.73c-4.35,3.18-9.59,4.6-14.76,5.82
	c-5.74,1.35-11.72,2.66-16.4,6.47c-0.57,0.46-1.25-0.44-0.68-0.91c8.14-6.64,19.45-5.78,28.46-10.6c4.2-2.25,7.75-5.78,8.62-10.62
	c0.75-4.23-0.32-8.53-0.92-12.72c-0.73-4.3-0.4-8.72,0.97-12.87c1.61-4.29,3.95-8.27,6.9-11.78c6.52-8,14.25-14.93,22.92-20.53
	c9.86-6.44,20.75-11.15,32.19-13.93C110.47,329.27,110.6,330.4,109.9,330.57L109.9,330.57z"/>
<path class="st2" d="M60.84,357.74c-4.96-5.57-5.16-13.91-0.47-19.71c0.46-0.57,1.36,0.12,0.9,0.69
	c-4.38,5.39-4.18,13.17,0.47,18.33C62.24,357.59,61.33,358.28,60.84,357.74z"/>
<path class="st2" d="M47.28,385.8c7.37,0.49,14.64-1.82,20.39-6.45c0.57-0.46,1.25,0.45,0.68,0.91c-5.98,4.82-13.56,7.2-21.23,6.67
	C46.39,386.87,46.55,385.75,47.28,385.8z"/>
<path class="st2" d="M87.69,338.41c1.45,2.51,4.06,4.13,6.95,4.3c0.73,0.04,0.57,1.17-0.16,1.12c-3.19-0.21-6.08-1.98-7.7-4.74
	c-0.18-0.25-0.13-0.6,0.11-0.8C87.14,338.11,87.5,338.16,87.69,338.41L87.69,338.41z"/>
<path class="st1" d="M145.17,409.86c-0.46-0.01-0.91-0.03-1.38-0.03c-6.14-0.14-12.29,0.22-18.38,1.07
	c-0.47,0.06-0.95,0.13-1.42,0.2c-14.64,2.21-28.75,7.13-41.59,14.49c-5.11,2.93-9.99,6.25-14.6,9.93
	c-6.36,5.08-12.85,11.09-20.3,13.69c-0.77,0.28-1.56,0.51-2.37,0.69l-34.56-23.88c-0.05-0.09-0.11-0.18-0.16-0.27L9,424.86
	c0.22-0.21,0.46-0.42,0.69-0.62c0.13-0.12,0.27-0.23,0.4-0.35c0.09-0.08,0.18-0.16,0.25-0.23c0.03-0.03,0.06-0.05,0.08-0.07
	c0.08-0.08,0.15-0.14,0.22-0.21c1.32-1.17,2.65-2.34,4-3.49c0.01-0.01,0.01-0.01,0.02-0.01c10.26-8.79,21.34-16.8,33.28-22.88
	c0.36-0.18,0.72-0.37,1.1-0.55c5.4-2.71,11.01-4.97,16.78-6.77c3.16-0.97,6.37-1.78,9.61-2.43c8.38-1.66,16.98-1.99,25.46-0.98
	c16.92,2.02,33,9.43,43.48,22.58C144.64,409.18,144.9,409.51,145.17,409.86z"/>
<path class="st2" d="M144.79,410.24c-19.57-8.47-41.31-10.56-62.14-5.97c-4.5,0.91-8.83,2.52-12.83,4.78
	c-3.82,2.32-6.96,5.63-9.07,9.57c-2.05,3.64-3.72,7.6-6.61,10.67c-3.04,3.14-7.28,4.83-11.65,4.65c-5.39-0.08-10.43-2.1-15.29-4.24
	c-5.4-2.38-10.96-4.93-16.99-4.7c-0.73,0.03-0.73-1.11,0-1.14c10.49-0.4,19.01,7.09,29.11,8.67c4.71,0.73,9.67,0.05,13.27-3.29
	c3.15-2.93,4.88-7.01,6.92-10.71c2.01-3.88,4.93-7.21,8.52-9.69c3.87-2.45,8.13-4.23,12.6-5.25c10.02-2.46,20.37-3.34,30.66-2.59
	c11.75,0.79,23.28,3.58,34.09,8.26C146.03,409.55,145.45,410.53,144.79,410.24L144.79,410.24z"/>
<path class="st2" d="M89.26,402.4c-0.61-7.43,4.25-14.21,11.49-16.02c0.71-0.17,1.01,0.92,0.3,1.09c-6.74,1.67-11.27,8-10.66,14.92
	C90.46,403.12,89.33,403.12,89.26,402.4z"/>
<path class="st2" d="M61.54,416.64c5.59,4.82,12.79,7.37,20.16,7.12c0.73-0.03,0.73,1.11,0,1.14c-7.68,0.24-15.16-2.42-20.97-7.45
	C60.18,416.96,60.99,416.16,61.54,416.64L61.54,416.64z"/>
<path class="st2" d="M122.33,403.13c-0.36,2.88,0.76,5.74,2.96,7.62c0.56,0.47-0.25,1.27-0.8,0.8c-2.43-2.09-3.66-5.24-3.3-8.42
	c0.01-0.31,0.26-0.56,0.57-0.57C122.08,402.56,122.33,402.82,122.33,403.13L122.33,403.13z"/>
<path class="st1" d="M712.66,511.59c-9.69-23.87-31.52-44.11-57.22-45.83c16.1,22.93,23.57,50.82,21.09,78.73
	c-1,10.76-3.22,22.62,2.82,31.58c3.76,5.57,10.2,8.88,16.78,10.27c6.58,1.38,13.38,1.06,20.1,0.73l1.53,0.7
	C721.75,562.31,722.35,535.47,712.66,511.59z"/>
<path class="st2" d="M655.33,466.29c17.83,11.69,31.53,28.71,39.15,48.63c1.72,4.26,2.75,8.76,3.06,13.34
	c0.16,4.47-0.88,8.91-3.01,12.84c-1.91,3.71-4.3,7.28-5.28,11.39c-0.95,4.27-0.04,8.74,2.52,12.29c3.03,4.46,7.48,7.56,11.94,10.44
	c4.95,3.2,10.15,6.45,13.27,11.61c0.38,0.63,1.33,0,0.95-0.62c-5.44-8.99-16.38-11.98-23.24-19.55c-3.2-3.53-5.36-8.05-4.54-12.9
	c0.71-4.24,3.17-7.93,5.14-11.67c2.14-3.81,3.31-8.08,3.41-12.45c-0.08-4.58-0.94-9.12-2.54-13.41
	c-3.45-9.73-8.41-18.85-14.69-27.03c-7.12-9.38-15.79-17.48-25.64-23.94C655.23,464.87,654.73,465.89,655.33,466.29L655.33,466.29z"
	/>
<path class="st2" d="M692.4,508.36c6.54-3.58,9.54-11.37,7.07-18.4c-0.24-0.69-1.33-0.34-1.08,0.35c2.31,6.55-0.49,13.81-6.61,17.1
	C691.14,507.76,691.77,508.71,692.4,508.36L692.4,508.36z"/>
<path class="st2" d="M695.75,539.35c-7.1-2.01-13.18-6.63-17.03-12.93c-0.38-0.62-1.33,0-0.95,0.62
	c4.02,6.55,10.35,11.34,17.75,13.42C696.22,540.66,696.45,539.55,695.75,539.35L695.75,539.35z"/>
<path class="st2" d="M673.62,481.14c-2.21,1.88-5.21,2.52-7.99,1.71c-0.7-0.21-0.93,0.91-0.23,1.11c3.08,0.88,6.39,0.18,8.85-1.88
	c0.25-0.18,0.32-0.52,0.16-0.79C674.23,481.04,673.88,480.97,673.62,481.14L673.62,481.14z"/>
<path class="st1" d="M595.47,529.11c0.43,0.14,0.87,0.28,1.31,0.43c5.83,1.93,11.5,4.34,16.95,7.19c0.42,0.21,0.85,0.44,1.27,0.66
	c13.05,7.01,24.68,16.38,34.3,27.63c3.83,4.48,7.31,9.25,10.41,14.26c4.29,6.92,8.38,14.76,14.52,19.71c0.63,0.52,1.3,1.01,2,1.45
	l40.57-10.87c0.08-0.07,0.16-0.13,0.24-0.2l1.64-0.36c-0.14-0.27-0.3-0.55-0.44-0.82c-0.08-0.16-0.17-0.31-0.25-0.47
	c-0.06-0.1-0.12-0.21-0.16-0.3c-0.02-0.03-0.04-0.07-0.05-0.09c-0.05-0.1-0.1-0.18-0.14-0.27c-0.85-1.55-1.72-3.09-2.59-4.63
	c0-0.01,0-0.01-0.01-0.02c-6.7-11.73-14.45-23-23.66-32.73c-0.28-0.29-0.56-0.6-0.85-0.88c-4.17-4.37-8.7-8.38-13.53-12.01
	c-2.65-1.98-5.4-3.82-8.24-5.52c-7.34-4.38-15.32-7.58-23.65-9.48c-16.61-3.78-34.25-2.21-48.54,6.65
	C596.19,528.65,595.83,528.88,595.47,529.11z"/>
<path class="st2" d="M595.7,529.6c21.28-1.4,42.46,3.94,60.53,15.26c3.93,2.37,7.47,5.34,10.48,8.81c2.82,3.47,4.66,7.64,5.33,12.07
	c0.7,4.11,0.95,8.4,2.64,12.27c1.81,3.98,5.24,7,9.41,8.3c5.1,1.73,10.53,1.53,15.82,1.15c5.88-0.43,11.98-0.96,17.59,1.28
	c0.68,0.27,1.06-0.8,0.38-1.07c-9.75-3.9-20.29,0.29-30.33-1.62c-4.68-0.89-9.12-3.2-11.39-7.56c-1.99-3.82-2.24-8.24-2.92-12.41
	c-0.59-4.33-2.22-8.44-4.77-11.99c-2.82-3.61-6.24-6.72-10.1-9.18c-8.61-5.69-18.06-9.99-28-12.74
	c-11.33-3.21-23.13-4.45-34.88-3.68C594.76,528.53,594.98,529.65,595.7,529.6L595.7,529.6z"/>
<path class="st2" d="M650.63,540.87c3.07-6.8,0.77-14.82-5.44-18.95c-0.61-0.4-1.26,0.53-0.65,0.93c5.79,3.84,7.92,11.32,5.02,17.64
	C649.25,541.16,650.32,541.53,650.63,540.87L650.63,540.87z"/>
<path class="st2" d="M671.95,563.61c-6.88,2.67-14.52,2.64-21.38-0.07c-0.68-0.27-1.06,0.8-0.38,1.07
	c7.15,2.81,15.09,2.82,22.25,0.03C673.12,564.37,672.63,563.34,671.95,563.61L671.95,563.61z"/>
<path class="st2" d="M619.24,530.45c-0.63,2.83-2.64,5.15-5.35,6.18c-0.68,0.26-0.2,1.28,0.49,1.03c2.99-1.15,5.21-3.71,5.94-6.83
	c0.1-0.29-0.06-0.61-0.34-0.73C619.67,530,619.35,530.16,619.24,530.45L619.24,530.45z"/>
<circle class="st3" cx="524.68" cy="583.34" r="9.55"/>
<circle class="st4" cx="558.5" cy="420.75" r="9.55"/>
<circle class="st4" cx="380.87" cy="155.96" r="9.55"/>
<path class="st1" d="M180.83,522.15c0,2.43,0.08,4.86,0.25,7.27c0.18,2.88,0.49,5.74,0.91,8.58c1.41,9.56,4.11,18.89,8.02,27.73
	c0.2,0.44,0.4,0.88,0.6,1.32l0.3,0.66c0.1,0.22,0.21,0.44,0.31,0.65c0.14,0.29,0.27,0.57,0.41,0.85c0.17,0.35,0.34,0.7,0.52,1.05
	c0.02,0.04,0.04,0.09,0.07,0.14c0.15,0.3,0.29,0.59,0.45,0.89c0.03,0.07,0.06,0.13,0.1,0.19c0.17,0.34,0.35,0.69,0.53,1.03
	c0.2,0.36,0.39,0.73,0.59,1.09c0.48,0.89,0.98,1.77,1.49,2.65c0.15,0.26,0.3,0.52,0.46,0.78c0.14,0.24,0.28,0.48,0.43,0.72
	c0.1,0.16,0.2,0.33,0.3,0.49c0.16,0.27,0.32,0.53,0.49,0.8c0.37,0.59,0.75,1.18,1.12,1.77h0.01c0.17,0.27,0.35,0.54,0.53,0.8v0.01
	c0.53,0.8,1.08,1.6,1.63,2.39c0.01,0,0.01,0,0.01,0.01c0,0,0,0,0,0c0.44,0.64,0.9,1.26,1.35,1.88v0.01c0.3,0.39,0.59,0.79,0.89,1.18
	c0.24,0.32,0.49,0.65,0.74,0.97c0.05,0.07,0.11,0.13,0.16,0.2v0.01c0.07,0.09,0.14,0.17,0.21,0.26c1.06,1.36,2.15,2.69,3.28,3.99
	l0.18,0.21c0.06,0.07,0.13,0.14,0.19,0.22c0.1,0.11,0.19,0.22,0.29,0.33c0.09,0.11,0.19,0.22,0.29,0.33
	c5.87,6.62,12.53,12.49,19.83,17.49c0.97,0.67,1.96,1.32,2.95,1.95c0.25,0.16,0.5,0.32,0.75,0.47c0.07,0.05,0.15,0.1,0.22,0.15
	c0.14,0.08,0.27,0.16,0.41,0.25c0.13,0.08,0.26,0.16,0.4,0.24c0.53,0.33,1.07,0.65,1.61,0.97c0.13,0.08,0.27,0.16,0.41,0.24
	c0.13,0.07,0.27,0.15,0.41,0.23c0,0.01,0,0.01,0.01,0.01h0.01v0.01h0.01c0.67,0.39,1.35,0.77,2.04,1.14c0.37,0.2,0.75,0.41,1.13,0.6
	c0.86,0.47,1.73,0.92,2.6,1.35c0.31,0.15,0.63,0.3,0.94,0.46c0.26,0.12,0.52,0.25,0.78,0.37c0.08,0.04,0.15,0.07,0.22,0.11
	c0.22,0.1,0.43,0.2,0.65,0.3c0.24,0.11,0.48,0.22,0.71,0.33c0.27,0.12,0.53,0.24,0.8,0.35c1,0.45,2.01,0.88,3.02,1.29
	c3.62,1.48,7.32,2.77,11.08,3.84c0.17,0.05,0.35,0.1,0.53,0.15c1.61,0.45,3.23,0.86,4.86,1.23c2.85,0.66,5.73,1.2,8.63,1.62h0.02
	c0.35,0.05,0.69,0.1,1.04,0.15c0.03,0,0.06,0.01,0.1,0.01c0,0.01,0,0.01,0.01,0c0.38,0.05,0.77,0.1,1.15,0.15
	c0.03,0.01,0.05,0.01,0.08,0.01c0.36,0.05,0.73,0.09,1.09,0.13c0.39,0.04,0.78,0.08,1.17,0.12c0.3,0.03,0.6,0.06,0.9,0.09
	c0.03,0.01,0.05,0.01,0.08,0.01c0.27,0.02,0.54,0.05,0.81,0.07h0.04c0.23,0.02,0.47,0.04,0.7,0.06c2.79,0.22,5.59,0.32,8.43,0.32
	c3.07,0,6.12-0.12,9.13-0.38h0.03c0.65-0.06,1.29-0.12,1.93-0.18c0.17-0.02,0.33-0.03,0.5-0.05c0.03,0,0.07-0.01,0.1-0.01
	c0.05-0.01,0.1-0.01,0.16-0.02c0.03,0,0.05,0,0.08-0.01c0.22-0.02,0.44-0.05,0.67-0.07l0.75-0.09c0.25-0.03,0.5-0.07,0.75-0.1
	c0.06-0.01,0.11-0.01,0.17-0.02c0.18-0.02,0.36-0.05,0.54-0.08c0.09-0.01,0.18-0.02,0.26-0.03c0.18-0.03,0.35-0.05,0.53-0.08h0.01
	c5.49-0.79,10.9-2.01,16.2-3.65c0.28-0.09,0.56-0.17,0.84-0.26c0.01,0,0.02-0.01,0.03-0.01c0.08-0.03,0.17-0.05,0.25-0.08
	c0.75-0.24,1.49-0.49,2.23-0.75c1.02-0.34,2.03-0.71,3.04-1.09c0.27-0.11,0.54-0.21,0.81-0.32c0.55-0.21,1.09-0.43,1.63-0.65
	c0.92-0.37,1.84-0.76,2.75-1.16c0.85-0.38,1.69-0.76,2.53-1.16c0.02-0.01,0.05-0.01,0.07-0.03c0.19-0.09,0.38-0.18,0.56-0.27h0.01
	c4.61-2.21,9.05-4.75,13.29-7.59c1.36-0.91,2.7-1.85,4.02-2.82c1.06-0.79,2.1-1.59,3.14-2.41c5.13-4.08,9.88-8.62,14.19-13.56v-0.01
	c0.31-0.34,0.6-0.69,0.9-1.04c0.05-0.05,0.09-0.1,0.13-0.14c0.19-0.23,0.37-0.45,0.56-0.67v-0.01c0.25-0.29,0.5-0.59,0.74-0.89
	c0.06-0.07,0.11-0.13,0.16-0.19v-0.01c0.2-0.24,0.39-0.48,0.59-0.73c0.1-0.12,0.19-0.24,0.29-0.36v-0.01
	c0.59-0.74,1.16-1.48,1.73-2.24c0.15-0.2,0.3-0.41,0.46-0.62c0.72-0.97,1.42-1.96,2.1-2.95v-0.01c0.26-0.37,0.51-0.75,0.77-1.12
	c0.25-0.38,0.5-0.76,0.75-1.14c0.25-0.4,0.51-0.79,0.76-1.19l0.03-0.06c0.25-0.38,0.5-0.78,0.74-1.17c0.19-0.32,0.38-0.63,0.57-0.94
	c0.12-0.21,0.25-0.42,0.37-0.64c0.05-0.07,0.09-0.14,0.13-0.21c0.28-0.49,0.56-0.98,0.84-1.47c0.33-0.57,0.65-1.15,0.97-1.73
	c0.12-0.24,0.25-0.48,0.38-0.72c0.05-0.08,0.09-0.16,0.13-0.24c0.15-0.28,0.3-0.57,0.44-0.86c0.15-0.28,0.3-0.57,0.45-0.86
	c0.14-0.28,0.29-0.57,0.43-0.86c0.11-0.22,0.21-0.44,0.32-0.66c0.01-0.02,0.02-0.03,0.03-0.05c0.05-0.11,0.1-0.21,0.14-0.31
	c0.01-0.02,0.02-0.03,0.03-0.05c0.11-0.22,0.21-0.45,0.32-0.67c0.14-0.29,0.27-0.59,0.41-0.88c0.09-0.2,0.19-0.41,0.28-0.62
	c0.13-0.29,0.27-0.58,0.39-0.88c0.14-0.3,0.27-0.6,0.4-0.91c0.04-0.07,0.07-0.15,0.1-0.23c0.07-0.14,0.12-0.28,0.18-0.42
	c0.16-0.37,0.32-0.75,0.47-1.12c0.18-0.42,0.35-0.85,0.51-1.27c0.16-0.39,0.31-0.79,0.46-1.19l0.06-0.14
	c2.33-6.14,4.1-12.47,5.28-18.93v-0.01c0.67-3.69,1.14-7.4,1.43-11.14c0.01-0.21,0.03-0.41,0.04-0.61c0.18-2.53,0.26-5.07,0.26-7.62
	c0-1.13-0.02-2.25-0.05-3.37c-0.7-23.42-9.05-45.97-23.78-64.2c-0.32-0.4-0.64-0.8-0.97-1.2c-0.33-0.4-0.67-0.79-1-1.18
	c-38.64-45.25-106.66-50.61-151.91-11.97c-8.23,7.03-15.35,15.25-21.13,24.4c-0.49,0.78-0.98,1.57-1.45,2.36
	c-0.48,0.8-0.94,1.6-1.4,2.41C185.55,485.5,180.8,503.67,180.83,522.15z"/>
<path class="st2" d="M284.28,451.68c17.72,4.55,35.87,7.17,54.15,7.82c2.76,0.15,5.53,0.13,8.3-0.06
	c6.07-0.51,11.27-2.42,17.06-3.46c2.78-0.5,5.88-0.87,8.69-1.41c-0.65-0.8-1.31-1.6-1.98-2.38c-6.04,0.51-12.18,2.18-18.29,2.96
	c-10.39,1.32-22.04-0.15-29.92-3.79c-3.82-1.77-6.75-3.97-10.56-5.74c-0.52-0.27-1.08-0.44-1.66-0.51c-1.1-0.03-2.18,0.25-3.13,0.81
	c-6.39,3.23-15.67,5.85-24.28,4.41C282.01,450.83,283.23,451.4,284.28,451.68z"/>
<path class="st2" d="M246.17,463.03c-0.08-0.01-0.16-0.03-0.24-0.04c0.33-0.21,0.64-0.44,0.93-0.7L246.17,463.03z"/>
<path class="st2" d="M194.61,469.4c3.6,0.29,7.21,0.5,10.85,0.64c2.76,0.15,5.53,0.13,8.3-0.06c6.07-0.51,11.27-2.42,17.06-3.46
	c5.31-0.95,11.75-1.41,15.12-3.53c-8.71-1.51-17.73,1.56-26.71,2.7c-7.26,0.89-14.62,0.53-21.76-1.07
	C196.47,466.19,195.52,467.78,194.61,469.4z"/>
<path class="st5" d="M238.13,617.36c0.86,0.47,1.73,0.92,2.6,1.35c0.31,0.15,0.63,0.3,0.94,0.46c0.26,0.12,0.52,0.25,0.78,0.37
	c0.08,0.04,0.15,0.07,0.22,0.11c0.22,0.1,0.43,0.2,0.65,0.3c0.24,0.11,0.48,0.22,0.71,0.33c0.27,0.12,0.53,0.24,0.8,0.35
	c1,0.45,2.01,0.88,3.02,1.29c3.62,1.48,7.32,2.77,11.08,3.84c0.17,0.05,0.35,0.1,0.53,0.15c1.61,0.45,3.23,0.86,4.86,1.23
	c2.85,0.66,5.73,1.2,8.63,1.62h0.02c0.35,0.05,0.69,0.1,1.04,0.15c0.03,0,0.06,0.01,0.1,0.01c0,0.01,0,0.01,0.01,0
	c0.38,0.05,0.77,0.1,1.15,0.15c0.03,0.01,0.05,0.01,0.08,0.01c0.36,0.05,0.73,0.09,1.09,0.13c0.39,0.04,0.78,0.08,1.17,0.12
	c0.3,0.03,0.6,0.06,0.9,0.09c0.03,0.01,0.05,0.01,0.08,0.01c0.27,0.02,0.54,0.05,0.81,0.07h0.04c0.23,0.02,0.47,0.04,0.7,0.06
	c2.79,0.22,5.59,0.32,8.43,0.32c3.07,0,6.12-0.12,9.13-0.38h0.03c0.65-0.06,1.29-0.12,1.93-0.18c0.17-0.02,0.33-0.03,0.5-0.05
	c0.03,0,0.07-0.01,0.1-0.01c0.05-0.01,0.1-0.01,0.16-0.02c0.03,0,0.05,0,0.08-0.01c0.22-0.02,0.44-0.05,0.67-0.07l0.75-0.09
	c0.25-0.03,0.5-0.07,0.75-0.1c0.06-0.01,0.11-0.01,0.17-0.02c0.18-0.02,0.36-0.05,0.54-0.08c0.09-0.01,0.18-0.02,0.26-0.03
	c0.18-0.03,0.35-0.05,0.53-0.08h0.01c5.49-0.79,10.9-2.01,16.2-3.65c0.28-0.09,0.56-0.17,0.84-0.26
	c-2.62-12.2-10.76-22.5-22.03-27.86c1.38-1.31,2.33-3,2.73-4.86c0.52-2.42,0.06-4.94-1.28-7.02c-1.3-1.99-3.33-3.39-5.66-3.88
	l-14.82-3.1c-4.97-0.97-9.78,2.24-10.8,7.2c-0.15,0.73-0.22,1.47-0.2,2.22C254.89,597.05,244.62,606.9,238.13,617.36z"/>
<circle class="st6" cx="281.88" cy="541.4" r="30.88"/>
<path class="st7" d="M262.64,568.02c-3.29-2.25-6.65-6.57-8.9-9.81c-6.02-8.61-8.1-19.37-5.72-29.6c0.37-2.02,1.29-3.91,2.66-5.45
	c1.45-1.44,3.83-2.12,5.6-1.1c-0.98-2.62-0.83-5.53,0.41-8.04c1.25-2.48,3.06-4.63,5.28-6.29c8.67-6.67,20.3-8.05,30.28-3.59
	c1.93,0.89-1.24-6.01,0.78-5.34c2.01,0.78,4.23,0.74,6.21-0.11c1.9-0.96,8.19,4.72,7.46,2.73c4.72,2.14,6.8,7.7,4.66,12.41
	c-0.58,1.27-1.43,2.39-2.49,3.29c-1.59,1.35-3.58,2.12-5.33,3.26c-6.33,4.45-8.33,12.92-4.68,19.74c-1.84-1.18-3.85-2.05-5.96-2.59
	c-2.15-0.53-4.43,0.02-6.1,1.47c-1.4,1.6-2.07,3.7-1.87,5.82c0.07,2.1,0.57,4.16,0.62,6.26c0.16,6.15,3.46,17.84-1.31,21.11
	C280.49,574.76,267.13,571.09,262.64,568.02z"/>
<path class="st8" d="M808.33,37.3H1.01C0.44,37.29-0.01,36.81,0,36.24c0.01-0.55,0.46-1,1.01-1.01h807.31
	c0.57,0.01,1.03,0.49,1.01,1.06C809.33,36.84,808.88,37.29,808.33,37.3L808.33,37.3z"/>
<ellipse class="st9" cx="23.83" cy="11.4" rx="11.15" ry="11.4"/>
<ellipse class="st9" cx="62.34" cy="11.4" rx="11.15" ry="11.4"/>
<ellipse class="st9" cx="100.85" cy="11.4" rx="11.15" ry="11.4"/>
<path class="st9" d="M785.25,6.97h-27.36c-1.14-0.03-2.05-0.97-2.03-2.12c0.02-1.11,0.92-2,2.03-2.03h27.36
	c1.14,0.03,2.05,0.97,2.03,2.12C787.25,6.05,786.36,6.95,785.25,6.97z"/>
<path class="st9" d="M785.25,14.74h-27.36c-1.14-0.03-2.05-0.97-2.03-2.12c0.02-1.11,0.92-2,2.03-2.03h27.36
	c1.14,0.03,2.05,0.97,2.03,2.12C787.26,13.82,786.36,14.72,785.25,14.74z"/>
<path class="st9" d="M785.25,22.51h-27.36c-1.14-0.03-2.05-0.97-2.03-2.12c0.02-1.11,0.92-2,2.03-2.03h27.36
	c1.14,0.03,2.05,0.97,2.03,2.12C787.26,21.6,786.36,22.49,785.25,22.51z"/>
<path class="st2" d="M303.11,386.86c-0.65,0-1.29-0.13-1.89-0.38c-1.83-0.74-3.02-2.52-3-4.5v-4.89c0-2.13-1.73-3.86-3.87-3.87
	c-2.69,0-4.86-2.18-4.87-4.87V301.4c0-2.69,2.18-4.86,4.87-4.87h221.83c2.69,0,4.86,2.18,4.87,4.87v66.96
	c0,2.69-2.18,4.86-4.87,4.87H320.32c-1.03,0-2.01,0.4-2.73,1.13l-11.06,11.06C305.63,386.33,304.4,386.85,303.11,386.86z"/>
<path class="st9" d="M303.11,387.86c-0.78,0-1.56-0.16-2.28-0.46c-2.21-0.89-3.65-3.04-3.62-5.42v-4.89c0-1.58-1.28-2.87-2.87-2.87
	c-3.24,0-5.86-2.63-5.87-5.87V301.4c0-3.24,2.63-5.86,5.87-5.87h221.83c3.24,0,5.86,2.63,5.87,5.87v66.95
	c0,3.24-2.63,5.86-5.87,5.87H320.32c-0.76,0-1.49,0.3-2.03,0.84l-11.06,11.06C306.15,387.23,304.66,387.85,303.11,387.86z
	 M294.35,297.54c-2.13,0-3.86,1.73-3.87,3.87v66.95c0,2.13,1.73,3.86,3.87,3.87c2.69,0,4.86,2.18,4.87,4.87v4.89
	c0,2.14,1.73,3.87,3.87,3.87c1.03,0,2.01-0.41,2.73-1.13l11.06-11.06c0.91-0.92,2.15-1.43,3.44-1.43h195.86
	c2.13,0,3.86-1.73,3.87-3.87V301.4c0-2.13-1.73-3.86-3.87-3.87L294.35,297.54z"/>
<path class="st5" d="M497.11,326.85H317.24c-1.43,0-2.59-1.16-2.59-2.59s1.16-2.59,2.59-2.59h179.88c1.43,0,2.59,1.16,2.59,2.59
	S498.55,326.85,497.11,326.85z"/>
<path class="st4" d="M496.78,337.86H317.24c-1.43,0-2.59-1.16-2.59-2.59s1.16-2.59,2.59-2.59h179.55c1.43,0,2.59,1.16,2.59,2.59
	S498.21,337.86,496.78,337.86z"/>
<path class="st4" d="M496.6,348.86H317.24c-1.43,0-2.59-1.16-2.59-2.59s1.16-2.59,2.59-2.59H496.6c1.43,0,2.59,1.16,2.59,2.59
	S498.04,348.86,496.6,348.86z"/>
<path class="st1" d="M780.39,286.15c0,2.43-0.08,4.86-0.25,7.27c-0.18,2.88-0.49,5.74-0.91,8.58c-1.41,9.56-4.11,18.89-8.02,27.73
	c-0.2,0.44-0.4,0.88-0.6,1.32l-0.3,0.66c-0.1,0.22-0.21,0.44-0.31,0.65c-0.14,0.29-0.27,0.57-0.41,0.85
	c-0.17,0.35-0.34,0.7-0.52,1.05c-0.02,0.04-0.04,0.09-0.07,0.14c-0.15,0.3-0.29,0.59-0.45,0.89c-0.03,0.07-0.06,0.13-0.1,0.19
	c-0.17,0.34-0.35,0.69-0.53,1.03c-0.2,0.36-0.39,0.73-0.59,1.09c-0.48,0.89-0.98,1.77-1.49,2.65c-0.15,0.26-0.3,0.52-0.46,0.78
	c-0.14,0.24-0.28,0.48-0.43,0.72c-0.1,0.16-0.2,0.33-0.3,0.49c-0.16,0.27-0.32,0.53-0.49,0.8c-0.37,0.59-0.75,1.18-1.12,1.77h-0.01
	c-0.17,0.27-0.35,0.54-0.53,0.8v0.01c-0.53,0.8-1.08,1.6-1.63,2.39c-0.01,0-0.01,0-0.01,0.01c0,0,0,0,0,0
	c-0.44,0.64-0.9,1.26-1.35,1.88v0.01c-0.3,0.39-0.59,0.79-0.89,1.18c-0.24,0.32-0.49,0.65-0.74,0.97c-0.05,0.07-0.11,0.13-0.16,0.2
	v0.01c-0.07,0.09-0.14,0.17-0.21,0.26c-1.06,1.36-2.15,2.69-3.28,3.99l-0.18,0.21c-0.06,0.07-0.13,0.14-0.19,0.22
	c-0.1,0.11-0.19,0.22-0.29,0.33c-0.09,0.11-0.19,0.22-0.29,0.33c-5.87,6.62-12.53,12.49-19.83,17.49c-0.97,0.67-1.96,1.32-2.95,1.95
	c-0.25,0.16-0.5,0.32-0.75,0.47c-0.07,0.05-0.15,0.1-0.22,0.15c-0.14,0.08-0.27,0.16-0.41,0.25c-0.13,0.08-0.26,0.16-0.4,0.24
	c-0.53,0.33-1.07,0.65-1.61,0.97c-0.13,0.08-0.27,0.16-0.41,0.24c-0.13,0.07-0.27,0.15-0.41,0.23c0,0.01,0,0.01-0.01,0.01h-0.01
	v0.01h-0.01c-0.67,0.39-1.35,0.77-2.04,1.14c-0.37,0.2-0.75,0.41-1.13,0.6c-0.86,0.47-1.73,0.92-2.6,1.35
	c-0.31,0.15-0.63,0.3-0.94,0.46c-0.26,0.12-0.52,0.25-0.78,0.37c-0.08,0.04-0.15,0.07-0.22,0.11c-0.22,0.1-0.43,0.2-0.65,0.3
	c-0.24,0.11-0.48,0.22-0.71,0.33c-0.27,0.12-0.53,0.24-0.8,0.35c-1,0.45-2.01,0.88-3.02,1.29c-3.62,1.48-7.32,2.77-11.08,3.84
	c-0.17,0.05-0.35,0.1-0.53,0.15c-1.61,0.45-3.23,0.86-4.86,1.23c-2.85,0.66-5.73,1.2-8.63,1.62h-0.02c-0.35,0.05-0.69,0.1-1.04,0.15
	c-0.03,0-0.06,0.01-0.1,0.01c0,0.01,0,0.01-0.01,0c-0.38,0.05-0.77,0.1-1.15,0.15c-0.03,0.01-0.05,0.01-0.08,0.01
	c-0.36,0.05-0.73,0.09-1.09,0.13c-0.39,0.04-0.78,0.08-1.17,0.12c-0.3,0.03-0.6,0.06-0.9,0.09c-0.03,0.01-0.05,0.01-0.08,0.01
	c-0.27,0.02-0.54,0.05-0.81,0.07h-0.04c-0.23,0.02-0.47,0.04-0.7,0.06c-2.79,0.22-5.59,0.32-8.43,0.32c-3.07,0-6.12-0.12-9.13-0.38
	h-0.03c-0.65-0.06-1.29-0.12-1.93-0.18c-0.17-0.02-0.33-0.03-0.5-0.05c-0.03,0-0.07-0.01-0.1-0.01c-0.05-0.01-0.1-0.01-0.16-0.02
	c-0.03,0-0.05,0-0.08-0.01c-0.22-0.02-0.44-0.05-0.67-0.07l-0.75-0.09c-0.25-0.03-0.5-0.07-0.75-0.1c-0.06-0.01-0.11-0.01-0.17-0.02
	c-0.18-0.02-0.36-0.05-0.54-0.08c-0.09-0.01-0.18-0.02-0.26-0.03c-0.18-0.03-0.35-0.05-0.53-0.08h-0.01
	c-5.49-0.79-10.9-2.01-16.2-3.65c-0.28-0.09-0.56-0.17-0.84-0.26c-0.01,0-0.02-0.01-0.03-0.01c-0.08-0.03-0.17-0.05-0.25-0.08
	c-0.75-0.24-1.49-0.49-2.23-0.75c-1.02-0.34-2.03-0.71-3.04-1.09c-0.27-0.11-0.54-0.21-0.81-0.32c-0.55-0.21-1.09-0.43-1.63-0.65
	c-0.92-0.37-1.84-0.76-2.75-1.16c-0.85-0.38-1.69-0.76-2.53-1.16c-0.02-0.01-0.05-0.01-0.07-0.03c-0.19-0.09-0.38-0.18-0.56-0.27
	h-0.01c-4.61-2.21-9.05-4.75-13.29-7.59c-1.36-0.91-2.7-1.85-4.02-2.82c-1.06-0.79-2.1-1.59-3.14-2.41
	c-5.13-4.08-9.88-8.62-14.19-13.56v-0.01c-0.31-0.34-0.6-0.69-0.9-1.04c-0.05-0.05-0.09-0.1-0.13-0.14
	c-0.19-0.23-0.37-0.45-0.56-0.67v-0.01c-0.25-0.29-0.5-0.59-0.74-0.89c-0.06-0.07-0.11-0.13-0.16-0.19v-0.01
	c-0.2-0.24-0.39-0.48-0.59-0.73c-0.1-0.12-0.19-0.24-0.29-0.36v-0.01c-0.59-0.74-1.16-1.48-1.73-2.24c-0.15-0.2-0.3-0.41-0.46-0.62
	c-0.72-0.97-1.42-1.96-2.1-2.95v-0.01c-0.26-0.37-0.51-0.75-0.77-1.12c-0.25-0.38-0.5-0.76-0.75-1.14c-0.25-0.4-0.51-0.79-0.76-1.19
	l-0.03-0.06c-0.25-0.38-0.5-0.78-0.74-1.17c-0.19-0.32-0.38-0.63-0.57-0.94c-0.12-0.21-0.25-0.42-0.37-0.64
	c-0.05-0.07-0.09-0.14-0.13-0.21c-0.28-0.49-0.56-0.98-0.84-1.47c-0.33-0.57-0.65-1.15-0.97-1.73c-0.12-0.24-0.25-0.48-0.38-0.72
	c-0.05-0.08-0.09-0.16-0.13-0.24c-0.15-0.28-0.3-0.57-0.44-0.86c-0.15-0.28-0.3-0.57-0.45-0.86c-0.14-0.28-0.29-0.57-0.43-0.86
	c-0.11-0.22-0.21-0.44-0.32-0.66c-0.01-0.02-0.02-0.03-0.03-0.05c-0.05-0.11-0.1-0.21-0.14-0.31c-0.01-0.02-0.02-0.03-0.03-0.05
	c-0.11-0.22-0.21-0.45-0.32-0.67c-0.14-0.29-0.27-0.59-0.41-0.88c-0.09-0.2-0.19-0.41-0.28-0.62c-0.13-0.29-0.27-0.58-0.39-0.88
	c-0.14-0.3-0.27-0.6-0.4-0.91c-0.04-0.07-0.07-0.15-0.1-0.23c-0.07-0.14-0.12-0.28-0.18-0.42c-0.16-0.37-0.32-0.75-0.47-1.12
	c-0.18-0.42-0.35-0.85-0.51-1.27c-0.16-0.39-0.31-0.79-0.46-1.19l-0.06-0.14c-2.33-6.14-4.1-12.47-5.28-18.93v-0.01
	c-0.67-3.69-1.14-7.4-1.43-11.14c-0.01-0.21-0.03-0.41-0.04-0.61c-0.18-2.53-0.26-5.07-0.26-7.62c0-1.13,0.02-2.25,0.05-3.37
	c0.7-23.42,9.05-45.97,23.78-64.2c0.32-0.4,0.64-0.8,0.97-1.2c0.33-0.4,0.67-0.79,1-1.18c38.64-45.25,106.66-50.61,151.91-11.97
	c8.23,7.03,15.35,15.25,21.13,24.4c0.49,0.78,0.98,1.57,1.45,2.36c0.48,0.8,0.94,1.6,1.4,2.41
	C775.66,249.5,780.41,267.67,780.39,286.15z"/>
<path class="st2" d="M676.93,215.68c-17.72,4.55-35.87,7.17-54.15,7.82c-2.76,0.15-5.53,0.13-8.3-0.06
	c-6.07-0.51-11.27-2.42-17.06-3.46c-2.78-0.5-5.88-0.87-8.69-1.41c0.65-0.8,1.31-1.6,1.98-2.38c6.04,0.51,12.18,2.18,18.29,2.96
	c10.39,1.32,22.04-0.15,29.92-3.79c3.82-1.77,6.75-3.97,10.56-5.74c0.52-0.27,1.08-0.44,1.66-0.51c1.1-0.03,2.18,0.25,3.13,0.81
	c6.39,3.23,15.67,5.85,24.28,4.41C679.2,214.83,677.98,215.4,676.93,215.68z"/>
<path class="st2" d="M715.04,227.03c0.08-0.01,0.16-0.03,0.24-0.04c-0.33-0.21-0.64-0.44-0.93-0.7L715.04,227.03z"/>
<path class="st2" d="M766.6,233.4c-3.6,0.29-7.21,0.5-10.85,0.64c-2.76,0.15-5.53,0.13-8.3-0.06c-6.07-0.51-11.27-2.42-17.06-3.46
	c-5.31-0.95-11.75-1.41-15.12-3.53c8.71-1.51,17.73,1.56,26.71,2.7c7.26,0.89,14.62,0.53,21.76-1.07
	C764.74,230.19,765.7,231.78,766.6,233.4z"/>
<ellipse class="st10" cx="660.5" cy="300.21" rx="32.36" ry="33.08"/>
<path class="st5" d="M723.09,381.36c-0.86,0.47-1.73,0.92-2.6,1.35c-0.31,0.15-0.63,0.3-0.94,0.46c-0.26,0.12-0.52,0.25-0.78,0.37
	c-0.08,0.04-0.15,0.07-0.22,0.11c-0.22,0.1-0.43,0.2-0.65,0.3c-0.24,0.11-0.48,0.22-0.71,0.33c-0.27,0.12-0.53,0.24-0.8,0.35
	c-1,0.45-2.01,0.88-3.02,1.29c-3.62,1.48-7.32,2.77-11.08,3.84c-0.17,0.05-0.35,0.1-0.53,0.15c-1.61,0.45-3.23,0.86-4.86,1.23
	c-2.85,0.66-5.73,1.2-8.63,1.62h-0.02c-0.35,0.05-0.69,0.1-1.04,0.15c-0.03,0-0.06,0.01-0.1,0.01c0,0.01,0,0.01-0.01,0
	c-0.38,0.05-0.77,0.1-1.15,0.15c-0.03,0.01-0.05,0.01-0.08,0.01c-0.36,0.05-0.73,0.09-1.09,0.13c-0.39,0.04-0.78,0.08-1.17,0.12
	c-0.3,0.03-0.6,0.06-0.9,0.09c-0.03,0.01-0.05,0.01-0.08,0.01c-0.27,0.02-0.54,0.05-0.81,0.07h-0.04c-0.23,0.02-0.47,0.04-0.7,0.06
	c-2.79,0.22-5.59,0.32-8.43,0.32c-3.07,0-6.12-0.12-9.13-0.38h-0.03c-0.65-0.06-1.29-0.12-1.93-0.18c-0.17-0.02-0.33-0.03-0.5-0.05
	c-0.03,0-0.07-0.01-0.1-0.01c-0.05-0.01-0.1-0.01-0.16-0.02c-0.03,0-0.05,0-0.08-0.01c-0.22-0.02-0.44-0.05-0.67-0.07l-0.75-0.09
	c-0.25-0.03-0.5-0.07-0.75-0.1c-0.06-0.01-0.11-0.01-0.17-0.02c-0.18-0.02-0.36-0.05-0.54-0.08c-0.09-0.01-0.18-0.02-0.26-0.03
	c-0.18-0.03-0.35-0.05-0.53-0.08h-0.01c-5.49-0.79-10.9-2.01-16.2-3.65c-0.28-0.09-0.56-0.17-0.84-0.26
	c2.62-12.2,10.76-22.5,22.03-27.86c-1.38-1.31-2.33-3-2.73-4.86c-0.52-2.42-0.06-4.94,1.28-7.02c1.3-1.99,3.33-3.39,5.66-3.88
	l14.82-3.1c4.97-0.97,9.78,2.24,10.8,7.2c0.15,0.73,0.22,1.47,0.2,2.22C706.33,361.05,716.6,370.9,723.09,381.36z"/>
<path class="st7" d="M747.09,285.86c-5.5-6.41-8.12-14.92-12.51-22.21c-4.4-7.28-12.05-13.8-20.13-12.11
	c-5.57,1.17-9.88,6.09-12.06,11.57c-2.18,5.48-2.59,11.53-2.97,17.45c0.14-12.17-7.88-23.97-18.93-27.85
	c-11.05-3.88-24.26,0.45-31.21,10.23c-6.27-5.81-15.89-6.01-22.4-0.47c-6.21,5.55-7.58,16.11-3.02,23.19s14.45,9.71,21.71,5.79
	l2.57,2.36c-1.44,5.05,1.36,11.02,6.06,12.92c3.82,1.54,9.21,1.29,10.63,5.29c1,2.8-0.87,5.79-2.85,7.94
	c-1.98,2.15-4.34,4.37-4.58,7.35c-0.36,4.49,4.28,7.64,8.5,8.58c10.17,2.28,21.46-2.43,27.32-11.4c0.11-0.17,0.24-0.35,0.37-0.52
	c6.65-8.5,9.5-19.36,7.9-30.03c-0.33-2.07,0-3.62,1.43-4.11c6.18-2.12,23.5,2.33,28.75,6.36c5.24,4.03,9.44,9.36,14.49,13.65
	c5.05,4.29,11.48,7.6,17.9,6.43c5.14-0.94,9.5-4.66,12.44-9.16c2.94-4.5,4.63-9.74,6.14-14.95
	C771.29,298.7,755.75,295.96,747.09,285.86z"/>
<path class="st1" d="M82.83,219.15c0,2.43,0.08,4.86,0.25,7.27c0.18,2.88,0.49,5.74,0.91,8.58c1.41,9.56,4.11,18.89,8.02,27.73
	c0.2,0.44,0.4,0.88,0.6,1.32l0.3,0.66c0.1,0.22,0.21,0.44,0.31,0.65c0.14,0.29,0.27,0.57,0.41,0.85c0.17,0.35,0.34,0.7,0.52,1.05
	c0.02,0.04,0.04,0.09,0.07,0.14c0.15,0.3,0.29,0.59,0.45,0.89c0.03,0.07,0.06,0.13,0.1,0.19c0.17,0.34,0.35,0.69,0.53,1.03
	c0.2,0.36,0.39,0.73,0.59,1.09c0.48,0.89,0.98,1.77,1.49,2.65c0.15,0.26,0.3,0.52,0.46,0.78c0.14,0.24,0.28,0.48,0.43,0.72
	c0.1,0.16,0.2,0.33,0.3,0.49c0.16,0.27,0.32,0.53,0.49,0.8c0.37,0.59,0.75,1.18,1.12,1.77h0.01c0.17,0.27,0.35,0.54,0.53,0.8v0.01
	c0.53,0.8,1.08,1.6,1.63,2.39c0.01,0,0.01,0,0.01,0.01c0,0,0,0,0,0c0.44,0.64,0.9,1.26,1.35,1.88v0.01c0.3,0.39,0.59,0.79,0.89,1.18
	c0.24,0.32,0.49,0.65,0.74,0.97c0.05,0.07,0.11,0.13,0.16,0.2v0.01c0.07,0.09,0.14,0.17,0.21,0.26c1.06,1.36,2.15,2.69,3.28,3.99
	l0.18,0.21c0.06,0.07,0.13,0.14,0.19,0.22c0.1,0.11,0.19,0.22,0.29,0.33c0.09,0.11,0.19,0.22,0.29,0.33
	c5.87,6.62,12.53,12.49,19.83,17.49c0.97,0.67,1.96,1.32,2.95,1.95c0.25,0.16,0.5,0.32,0.75,0.47c0.07,0.05,0.15,0.1,0.22,0.15
	c0.14,0.08,0.27,0.16,0.41,0.25c0.13,0.08,0.26,0.16,0.4,0.24c0.53,0.33,1.07,0.65,1.61,0.97c0.13,0.08,0.27,0.16,0.41,0.24
	c0.13,0.07,0.27,0.15,0.41,0.23c0,0.01,0,0.01,0.01,0.01h0.01v0.01h0.01c0.67,0.39,1.35,0.77,2.04,1.14c0.37,0.2,0.75,0.41,1.13,0.6
	c0.86,0.47,1.73,0.92,2.6,1.35c0.31,0.15,0.63,0.3,0.94,0.46c0.26,0.12,0.52,0.25,0.78,0.37c0.08,0.04,0.15,0.07,0.22,0.11
	c0.22,0.1,0.43,0.2,0.65,0.3c0.24,0.11,0.48,0.22,0.71,0.33c0.27,0.12,0.53,0.24,0.8,0.35c1,0.45,2.01,0.88,3.02,1.29
	c3.62,1.48,7.32,2.77,11.08,3.84c0.17,0.05,0.35,0.1,0.53,0.15c1.61,0.45,3.23,0.86,4.86,1.23c2.85,0.66,5.73,1.2,8.63,1.62h0.02
	c0.35,0.05,0.69,0.1,1.04,0.15c0.03,0,0.06,0.01,0.1,0.01c0,0.01,0,0.01,0.01,0c0.38,0.05,0.77,0.1,1.15,0.15
	c0.03,0.01,0.05,0.01,0.08,0.01c0.36,0.05,0.73,0.09,1.09,0.13c0.39,0.04,0.78,0.08,1.17,0.12c0.3,0.03,0.6,0.06,0.9,0.09
	c0.03,0.01,0.05,0.01,0.08,0.01c0.27,0.02,0.54,0.05,0.81,0.07h0.04c0.23,0.02,0.47,0.04,0.7,0.06c2.79,0.22,5.59,0.32,8.43,0.32
	c3.07,0,6.12-0.12,9.13-0.38h0.03c0.65-0.06,1.29-0.12,1.93-0.18c0.17-0.02,0.33-0.03,0.5-0.05c0.03,0,0.07-0.01,0.1-0.01
	c0.05-0.01,0.1-0.01,0.16-0.02c0.03,0,0.05,0,0.08-0.01c0.22-0.02,0.44-0.05,0.67-0.07l0.75-0.09c0.25-0.03,0.5-0.07,0.75-0.1
	c0.06-0.01,0.11-0.01,0.17-0.02c0.18-0.02,0.36-0.05,0.54-0.08c0.09-0.01,0.18-0.02,0.26-0.03c0.18-0.03,0.35-0.05,0.53-0.08h0.01
	c5.49-0.79,10.9-2.01,16.2-3.65c0.28-0.09,0.56-0.17,0.84-0.26c0.01,0,0.02-0.01,0.03-0.01c0.08-0.03,0.17-0.05,0.25-0.08
	c0.75-0.24,1.49-0.49,2.23-0.75c1.02-0.34,2.03-0.71,3.04-1.09c0.27-0.11,0.54-0.21,0.81-0.32c0.55-0.21,1.09-0.43,1.63-0.65
	c0.92-0.37,1.84-0.76,2.75-1.16c0.85-0.38,1.69-0.76,2.53-1.16c0.02-0.01,0.05-0.01,0.07-0.03c0.19-0.09,0.38-0.18,0.56-0.27h0.01
	c4.61-2.21,9.05-4.75,13.29-7.59c1.36-0.91,2.7-1.85,4.02-2.82c1.06-0.79,2.1-1.59,3.14-2.41c5.13-4.08,9.88-8.62,14.19-13.56v-0.01
	c0.31-0.34,0.6-0.69,0.9-1.04c0.05-0.05,0.09-0.1,0.13-0.14c0.19-0.23,0.37-0.45,0.56-0.67v-0.01c0.25-0.29,0.5-0.59,0.74-0.89
	c0.06-0.07,0.11-0.13,0.16-0.19v-0.01c0.2-0.24,0.39-0.48,0.59-0.73c0.1-0.12,0.19-0.24,0.29-0.36v-0.01
	c0.59-0.74,1.16-1.48,1.73-2.24c0.15-0.2,0.3-0.41,0.46-0.62c0.72-0.97,1.42-1.96,2.1-2.95v-0.01c0.26-0.37,0.51-0.75,0.77-1.12
	c0.25-0.38,0.5-0.76,0.75-1.14c0.25-0.4,0.51-0.79,0.76-1.19l0.03-0.06c0.25-0.38,0.5-0.78,0.74-1.17c0.19-0.32,0.38-0.63,0.57-0.94
	c0.12-0.21,0.25-0.42,0.37-0.64c0.05-0.07,0.09-0.14,0.13-0.21c0.28-0.49,0.56-0.98,0.84-1.47c0.33-0.57,0.65-1.15,0.97-1.73
	c0.12-0.24,0.25-0.48,0.38-0.72c0.05-0.08,0.09-0.16,0.13-0.24c0.15-0.28,0.3-0.57,0.44-0.86c0.15-0.28,0.3-0.57,0.45-0.86
	c0.14-0.28,0.29-0.57,0.43-0.86c0.11-0.22,0.21-0.44,0.32-0.66c0.01-0.02,0.02-0.03,0.03-0.05c0.05-0.11,0.1-0.21,0.14-0.31
	c0.01-0.02,0.02-0.03,0.03-0.05c0.11-0.22,0.21-0.45,0.32-0.67c0.14-0.29,0.27-0.59,0.41-0.88c0.09-0.2,0.19-0.41,0.28-0.62
	c0.13-0.29,0.27-0.58,0.39-0.88c0.14-0.3,0.27-0.6,0.4-0.91c0.04-0.07,0.07-0.15,0.1-0.23c0.07-0.14,0.12-0.28,0.18-0.42
	c0.16-0.37,0.32-0.75,0.47-1.12c0.18-0.42,0.35-0.85,0.51-1.27c0.16-0.39,0.31-0.79,0.46-1.19l0.06-0.14
	c2.33-6.14,4.1-12.47,5.28-18.93v-0.01c0.67-3.69,1.14-7.4,1.43-11.14c0.01-0.21,0.03-0.41,0.04-0.61c0.18-2.53,0.26-5.07,0.26-7.62
	c0-1.13-0.02-2.25-0.05-3.37c-0.7-23.42-9.05-45.97-23.78-64.2c-0.32-0.4-0.64-0.8-0.97-1.2c-0.33-0.4-0.67-0.79-1-1.18
	c-38.64-45.25-106.66-50.61-151.91-11.97c-8.23,7.03-15.35,15.25-21.13,24.4c-0.49,0.78-0.98,1.57-1.45,2.36
	c-0.48,0.8-0.94,1.6-1.4,2.41C87.55,182.5,82.8,200.67,82.83,219.15z"/>
<path class="st2" d="M186.28,148.68c17.72,4.55,35.87,7.17,54.15,7.82c2.76,0.15,5.53,0.13,8.3-0.06
	c6.07-0.51,11.27-2.42,17.06-3.46c2.78-0.5,5.88-0.87,8.69-1.41c-0.65-0.8-1.31-1.6-1.98-2.38c-6.04,0.51-12.18,2.18-18.29,2.96
	c-10.39,1.32-22.04-0.15-29.92-3.79c-3.82-1.77-6.75-3.97-10.56-5.74c-0.52-0.27-1.08-0.44-1.66-0.51c-1.1-0.03-2.18,0.25-3.13,0.81
	c-6.39,3.23-15.67,5.85-24.28,4.41C184.01,147.83,185.23,148.4,186.28,148.68z"/>
<path class="st2" d="M148.17,160.03c-0.08-0.01-0.16-0.03-0.24-0.04c0.33-0.21,0.64-0.44,0.93-0.7L148.17,160.03z"/>
<path class="st2" d="M96.61,166.4c3.6,0.29,7.21,0.5,10.85,0.64c2.76,0.15,5.53,0.13,8.3-0.06c6.07-0.51,11.27-2.42,17.06-3.46
	c5.31-0.95,11.75-1.41,15.12-3.53c-8.71-1.51-17.73,1.56-26.71,2.7c-7.26,0.89-14.62,0.53-21.76-1.07
	C98.47,163.19,97.52,164.78,96.61,166.4z"/>
<path class="st5" d="M140.13,314.36c0.86,0.47,1.73,0.92,2.6,1.35c0.31,0.15,0.63,0.3,0.94,0.46c0.26,0.12,0.52,0.25,0.78,0.37
	c0.08,0.04,0.15,0.07,0.22,0.11c0.22,0.1,0.43,0.2,0.65,0.3c0.24,0.11,0.48,0.22,0.71,0.33c0.27,0.12,0.53,0.24,0.8,0.35
	c1,0.45,2.01,0.88,3.02,1.29c3.62,1.48,7.32,2.77,11.08,3.84c0.17,0.05,0.35,0.1,0.53,0.15c1.61,0.45,3.23,0.86,4.86,1.23
	c2.85,0.66,5.73,1.2,8.63,1.62h0.02c0.35,0.05,0.69,0.1,1.04,0.15c0.03,0,0.06,0.01,0.1,0.01c0,0.01,0,0.01,0.01,0
	c0.38,0.05,0.77,0.1,1.15,0.15c0.03,0.01,0.05,0.01,0.08,0.01c0.36,0.05,0.73,0.09,1.09,0.13c0.39,0.04,0.78,0.08,1.17,0.12
	c0.3,0.03,0.6,0.06,0.9,0.09c0.03,0.01,0.05,0.01,0.08,0.01c0.27,0.02,0.54,0.05,0.81,0.07h0.04c0.23,0.02,0.47,0.04,0.7,0.06
	c2.79,0.22,5.59,0.32,8.43,0.32c3.07,0,6.12-0.12,9.13-0.38h0.03c0.65-0.06,1.29-0.12,1.93-0.18c0.17-0.02,0.33-0.03,0.5-0.05
	c0.03,0,0.07-0.01,0.1-0.01c0.05-0.01,0.1-0.01,0.16-0.02c0.03,0,0.05,0,0.08-0.01c0.22-0.02,0.44-0.05,0.67-0.07l0.75-0.09
	c0.25-0.03,0.5-0.07,0.75-0.1c0.06-0.01,0.11-0.01,0.17-0.02c0.18-0.02,0.36-0.05,0.54-0.08c0.09-0.01,0.18-0.02,0.26-0.03
	c0.18-0.03,0.35-0.05,0.53-0.08h0.01c5.49-0.79,10.9-2.01,16.2-3.65c0.28-0.09,0.56-0.17,0.84-0.26
	c-2.62-12.2-10.76-22.5-22.03-27.86c1.38-1.31,2.33-3,2.73-4.86c0.52-2.42,0.06-4.94-1.28-7.02c-1.3-1.99-3.33-3.39-5.66-3.88
	l-14.82-3.1c-4.97-0.97-9.78,2.24-10.8,7.2c-0.15,0.73-0.22,1.47-0.2,2.22C156.89,294.05,146.62,303.9,140.13,314.36z"/>
<circle class="st11" cx="198.75" cy="229.05" r="36.07"/>
<path class="st7" d="M193.63,263.19c-9.03,2.44-18.99-0.8-26.03-6.95s-11.46-14.87-14-23.87c-1.86-6.59-2.74-13.91,0.19-20.1
	s10.84-10.37,16.93-7.24c-3.76-4.38-1.88-11.63,2.51-15.38s10.42-4.82,16.17-5.41c8.34-0.85,16.95-0.95,24.88,1.75
	s15.14,8.6,17.62,16.61c5.21,2.43,11.41,1.03,15.08-3.4c0.94,5.09-1.64,10.18-6.31,12.42l12.15-3.94c2.09,4.42-1.57,9.9-6.26,11.32
	s-9.74-0.13-14.18-2.18s-8.75-4.63-13.58-5.43s-10.5,0.75-12.73,5.11c-1.17,2.28-1.23,4.95-1.91,7.42s-2.4,5.03-4.95,5.24
	c-1.61,0.13-3.19-0.73-4.8-0.56c-2.02,0.4-3.61,1.95-4.05,3.96c-0.4,1.97-0.41,4.01-0.01,5.98l3.09,23.6L193.63,263.19z"/>
</svg>
