<?xml version="1.0" encoding="utf-8"?>
<!-- Generator: Adobe Illustrator 24.0.0, SVG Export Plug-In . SVG Version: 6.00 Build 0)  -->
<svg version="1.1" id="Camada_1" xmlns="http://www.w3.org/2000/svg" xmlns:xlink="http://www.w3.org/1999/xlink" x="0px" y="0px"
	 viewBox="0 0 569.91 687.1" style="enable-background:new 0 0 569.91 687.1;" xml:space="preserve">
<style type="text/css">
	.st0{fill:#F2F2F2;}
	.st1{fill:#FFB6B6;}
	.st2{fill:#FFB351;}
	.st3{fill:#2F2E41;}
	.st4{fill:#B75B00;}
	.st5{fill:#3F3D56;}
	.st6{opacity:0.7;fill:#FFC462;enable-background:new    ;}
	.st7{opacity:0.25;fill:#FFD573;enable-background:new    ;}
	.st8{fill:#FFFFFF;}
	.st9{fill:#E6E6E6;}
</style>
<path class="st0" d="M518.77,609.27c-0.16,0-0.33,0-0.49,0l-429.96-5.02c-24.44-0.32-44.12-20.41-43.95-44.83
	C14.02,458.73,0.64,379.44,1.01,302.35c0.38-80.46,16.28-162.31,50.03-257.57C51.43,20.53,71.31,1,95.54,1c0.16,0,0.31,0,0.47,0
	l429.96,5.03c24.49,0.32,44.2,20.49,43.94,44.98v0l-0.87,74.58l-0.65,0.01l-5.13,439.73C562.95,589.66,543.03,609.27,518.77,609.27z
	 M95.54,3C72.35,3,53.32,21.73,53.03,44.97l0,0.17l-0.06,0.16c-64.45,181.83-66.19,316.25-6.65,513.7l0.04,0.15l0,0.15
	c-0.24,23.39,18.58,42.66,41.97,42.96l429.96,5.02c0.16,0,0.31,0,0.47,0c23.17,0,42.19-18.73,42.49-41.97L566,159.47l0.02-2
	l0.55-46.4l0.64-0.01l0.7-60.07c0.25-23.38-18.57-42.66-41.96-42.96L95.99,3C95.84,3,95.69,3,95.54,3z"/>
<polygon class="st0" points="480.57,429.08 480.54,431.08 234.94,431.08 234.94,429.08 "/>
<polygon class="st0" points="481.06,386.58 481.04,388.58 234.94,388.58 234.94,386.58 "/>
<polygon class="st0" points="481.56,344.08 481.54,346.08 234.94,346.08 234.94,344.08 "/>
<path class="st0" d="M480.02,475.48l-0.02,2H229.46v-209.9l2,0.02v125.61c0,12.86,2.95,25.03,8.21,35.87c0.33,0.67,0.66,1.34,1.01,2
	c13.7,26.38,41.28,44.4,73.06,44.4H480.02z"/>
<path class="st0" d="M132.58,579.83c-23.99-0.31-43.21-19.98-42.95-43.97C32.49,346.38,28.91,211.64,96.28,21.54
	c0.13-7.57,2.27-14.96,6.18-21.44L94,0C70.01-0.25,50.34,18.96,50.03,42.96c-67.37,190.1-63.79,324.84-6.65,514.32
	c-0.25,23.99,18.96,43.66,42.95,43.97l429.96,5.03c15.55,0.13,29.97-8.08,37.79-21.52L132.58,579.83L132.58,579.83z"/>
<path class="st1" d="M196.56,353.24c0.69,4.3-2.82,8.32-7.18,8.19l-14.46,32.59l-10-1.78l17.46-38.59c0.29-3.21,2.73-5.94,6.06-6.43
	C192.34,346.64,195.97,349.33,196.56,353.24L196.56,353.24z"/>
<path class="st2" d="M118.29,453.37L118.29,453.37c4.13,4.27,10.81,4.73,15.48,1.06l34.22-26.84l16.95-52.72l-12.33-5.7
	l-23.16,46.18l-29.45,20.44C114.14,439.87,113.32,448.24,118.29,453.37L118.29,453.37z"/>
<path class="st3" d="M125.73,435.07c-0.89-0.61-1.84-1.15-2.82-1.61c0.02-0.26,0.03-0.53,0.03-0.79c0.05-2.63-0.47-5.26-1.53-7.67
	c0.14,2.12-0.51,4.28-1.79,5.97c-0.22,0.3-0.46,0.58-0.72,0.85c-0.07,0.07-0.14,0.14-0.21,0.2c-1.41-0.32-2.87-0.47-4.32-0.45
	c-1.61,0.03-3.21,0.25-4.8,0.56c-1.99,0.38-3.97,0.91-5.95,1.35c-0.12,0.03-0.23,0.05-0.35,0.08c-0.91-2.47-2.34-4.73-4.2-6.59
	c0.89,1.92,1.07,4.17,0.49,6.21c-0.1,0.36-0.22,0.71-0.37,1.05c-2.16,0.22-4.32,0.16-6.39-0.44c-0.88-0.25-1.71-0.59-2.52-0.99
	c-2.86-1.4-5.44-3.48-8.39-4.73c-1.59-0.68-3.27-1.1-4.99-1.27c-1.44-8.25-1.04-15.57,3.38-20.86c0-12.07,9.79-21.86,21.86-21.86
	l10.02,3.48l10.12,3.52C127.04,403.78,134.61,414.96,125.73,435.07z"/>
<g>
	<polygon class="st4" points="141.86,663.71 148.72,666.96 164.8,641.49 154.68,636.69 	"/>
	<path class="st3" d="M158.34,682.02l-7.32-12.68l2.33-4.9l-2.42-0.98l-7.51-3.02l-1.84-0.74l-9.66,16.64l5.14,2.44l3.22-4.42
		l0.04,5.97l13.63,6.46c1.69,0.8,3.72,0.07,4.52-1.61C158.95,684.16,158.9,682.98,158.34,682.02L158.34,682.02z"/>
</g>
<g>
	<polygon class="st4" points="243.08,566.67 248.55,561.41 230.42,537.35 222.35,545.11 	"/>
	<path class="st3" d="M266.04,557.74l-14.45,2.35l-3.76-3.91l-1.77,1.92l-5.48,5.95l-1.35,1.46l12.14,14.93l4.1-3.95l-2.99-4.57
		l5.6,2.07l10.87-10.45c1.35-1.3,1.39-3.45,0.09-4.8C268.25,557.94,267.14,557.57,266.04,557.74L266.04,557.74z"/>
</g>
<path class="st3" d="M127.28,523.08l-27-6l0.18,8.21c0,0-28.18,21.79-2.18,42.79s70,23,70,23l-20,58l10,4l39.37-53.77
	c5.3-9.64,3.8-21.79-4.09-29.44c-1.53-1.48-3.28-2.79-5.28-3.79c-12-6-44-18-44-18l-16-16L127.28,523.08L127.28,523.08z"/>
<path class="st3" d="M126.28,538.08l55.46-35.29c6.22-3.96,14.33-3.26,19.78,1.71l41.77,45.58l-11,9l-43-30c0,0-25,28-32,28
	S126.28,538.08,126.28,538.08z"/>
<path class="st2" d="M96.28,540.93c0,0-17.03-9.65-9.02-17.83s9.02-34.02,9.02-34.02l-13-39.16l10-7l3-11.85l18-1v8.85l18.03,19.96
	c6.13,6.78,7.98,16.41,4.8,24.98l-4.83,13.05c0,0,14,37,2,42S96.28,540.93,96.28,540.93z"/>
<path class="st0" d="M186.36,397.7l-47.3-42.21c-7.14-6.33-7.8-17.26-1.47-24.41s17.26-7.8,24.41-1.47l0.08,0.07l47.3,42.21
	c7.1,6.38,7.69,17.31,1.31,24.41C204.34,403.39,193.47,404.01,186.36,397.7L186.36,397.7z"/>
<circle class="st4" cx="109.53" cy="408.79" r="17.98"/>
<path class="st3" d="M118.89,405.08c-0.13-2.09-0.64-4.16-1.48-6.08c0.14,2.12-0.51,4.28-1.79,5.97c-0.03,0.04-0.06,0.07-0.08,0.11
	c-3.31,1.6-8.88,0.7-14.26,0v-20h11c10.8-3.64,19.69,4.28,20,20C127.1,406.02,122.24,406.53,118.89,405.08L118.89,405.08z"/>
<path class="st3" d="M109.57,432.13c-1.99,0.38-3.97,0.91-5.95,1.35c-0.12,0.03-0.23,0.05-0.35,0.08c-0.91-2.47-2.34-4.73-4.2-6.59
	c0.89,1.92,1.07,4.17,0.49,6.21c-0.1,0.36-0.22,0.71-0.37,1.05c-2.16,0.22-4.32,0.16-6.39-0.44c-0.88-0.25-1.71-0.59-2.52-0.99
	v-42.72h21C103.13,403.96,101.97,417.96,109.57,432.13z"/>
<path class="st3" d="M105.6,382.13c-0.38-1.2-1.85-1.77-3.09-1.58s-2.32,0.95-3.34,1.69c1-1.08,0.49-3-0.73-3.82
	c-1.22-0.83-2.85-0.77-4.25-0.34s-2.69,1.2-4.06,1.72s-2.94,0.81-4.3,0.25c0.53,1.67,1.55,3.17,2.91,4.28
	c-1.6-0.28-3.34,0.55-4.13,1.97c-0.79,1.42-0.57,3.34,0.52,4.55c1.25,1.39,3.37,1.71,5.18,1.28c1.82-0.44,3.41-1.51,4.94-2.58
	c1.53-1.07,3.09-2.18,4.88-2.7l-5.89,3.71c3.01-1.25,5.93-2.72,8.73-4.39c0.75-0.45,1.5-0.92,2.05-1.6
	C105.56,383.89,105.87,382.96,105.6,382.13z"/>
<path class="st5" d="M77.84,561.77c-0.14-4.44,3.84-7.59,7.9-8.41c5.16-1.03,10.43,1.63,14.81,4.05c7.82,4.32,16.89,0.04,25.24,5.28
	c12.33,7.75,14.88-3.86,14.1-17.56c-0.57-10.1,1.87-20.03,2.4-29.97c0.5-9.57,3.11-19.3,11.22-25.24c3.41-2.5,7.65-3.97,11.88-3.1
	c4.52,0.94,8.13,4.18,12.48,5.6c8.1,2.63,16.62-0.92,22.7-6.33c7.07-6.3,10.52-15.15,12.95-24.08c2.52-9.26,4.06-18.96,8.67-27.49
	c3.94-7.28,10.13-14,18.66-15.39c8.36-1.36,16.36,2.74,23.58,6.41c7.42,3.78,15.1,7.87,23.6,8.22c18.22,0.75,32.3-14.75,40.2-29.49
	c9.01-16.83,14.24-37.25,30.26-49.14c6.88-5.11,15.62-8.68,24.32-7.25c8.79,1.45,15.21,7.82,21.05,14.06
	c5.98,6.38,11.92,12.67,20.02,16.35c7.95,3.61,16.83,4.96,25.49,3.82c4.18-0.55,8.18-1.7,12.05-3.37c1.77-0.76,0.24-3.35-1.51-2.59
	c-8.49,3.67-18.15,4.3-27.1,2.1c-9-2.22-16.16-7.25-22.52-13.84c-5.82-6.03-11.28-12.9-18.89-16.77c-7.7-3.92-16.52-3.82-24.46-0.66
	c-8.05,3.21-15.03,8.88-20.32,15.7c-6.15,7.92-10.23,17.21-14.34,26.29c-7.43,16.41-16.94,35.78-35.94,40.88
	c-17.99,4.83-31.29-11.09-48.07-13.61c-8.25-1.24-16.05,1.61-21.89,7.51c-6.05,6.1-9.54,14.17-11.85,22.31
	c-2.83,9.98-4.29,20.68-9.48,29.82c-4.11,7.23-11.71,13.93-20.36,14.43c-4.95,0.29-8.74-2-12.98-4.21
	c-3.82-1.99-7.8-3.01-12.09-2.18c-8.03,1.57-14.27,8.67-17.34,15.9c-7.57,17.85,2.85,40.78-11.96,56.05
	c-2.71,2.79-6.18,4.89-10.1,5.31c-5.25,0.57-10.16-1.87-14.62-4.35c-7.69-4.28-17.43-10.01-25.86-4.07c-2.99,2.11-5,5.29-4.89,9.03
	C74.9,563.7,77.9,563.71,77.84,561.77L77.84,561.77L77.84,561.77z"/>
<circle class="st2" cx="377.28" cy="345.08" r="9"/>
<circle class="st2" cx="293.28" cy="430.08" r="9"/>
<g>
	<path class="st0" d="M241.96,157.99c5.52-11.45,19.84-17.83,32.05-14.28c6.88,2,12.64,6.61,18.97,9.97
		c6.32,3.36,14.17,5.45,20.53,2.16c10.93-5.66,10.27-22.56,19.77-30.38c6.33-5.2,15.62-4.96,23.44-2.52
		c7.82,2.44,14.98,6.75,22.85,9.02c14.65,4.23,31.31,0.67,42.96-9.16c0.12-0.1,0.23-0.2,0.34-0.3c5.77-5.08,14.81-0.89,14.6,6.79
		L436,182.88H243L241.96,157.99L241.96,157.99z"/>
	<path class="st5" d="M411.35,148.33c0.64-0.26,0.64-1.15,0-1.41c-4.44-1.8-9.41-4.36-13.2-7.15c-0.61-0.45-1.42,0.17-1.16,0.88
		l2.16,5.97h-36.98v2h36.98l-2.16,5.98c-0.26,0.71,0.56,1.32,1.16,0.88C401.94,152.69,406.91,150.13,411.35,148.33z"/>
	<path class="st5" d="M328.14,138.7c0.35-0.59-0.19-1.3-0.85-1.12c-4.62,1.25-10.13,2.22-14.84,2.3c-0.75,0.01-1.03,0.99-0.39,1.4
		l5.34,3.45l-29.43,22.39l1.21,1.59l29.43-22.39l1.9,6.07c0.23,0.72,1.24,0.72,1.46-0.01C323.29,147.86,325.7,142.82,328.14,138.7
		L328.14,138.7z"/>
	<circle class="st2" cx="429.35" cy="118.72" r="17.14"/>
	<circle class="st6" cx="345.35" cy="118.72" r="17.14"/>
	<circle class="st7" cx="269.35" cy="134.72" r="17.14"/>
</g>
<g>
	<path class="st0" d="M477.31,217.08l-265.99-1.91c-8.55-0.06-15.55,6.84-15.61,15.39c-0.06,8.55,6.84,15.55,15.39,15.61
		l265.99,1.91c8.55,0.06,15.55-6.84,15.61-15.39C492.76,224.14,485.86,217.14,477.31,217.08L477.31,217.08z"/>
	<circle class="st0" cx="171.58" cy="227.43" r="7"/>
</g>
<g>
	<path class="st0" d="M477.31,45.08l-265.99-1.91c-8.55-0.06-15.55,6.84-15.61,15.39s6.84,15.55,15.39,15.61l265.99,1.91
		c8.55,0.06,15.55-6.84,15.61-15.39C492.76,52.14,485.86,45.14,477.31,45.08L477.31,45.08z"/>
	<circle class="st0" cx="171.58" cy="55.43" r="7"/>
</g>
<g>
	<path class="st8" d="M144.11,615.65h-43.56c-3.66,0-6.64-2.98-6.64-6.64v-43.56c0-3.66,2.98-6.64,6.64-6.64h43.56
		c3.66,0,6.64,2.98,6.64,6.64v43.56C150.76,612.67,147.78,615.65,144.11,615.65z"/>
	<path class="st9" d="M144.11,615.65h-43.56c-3.66,0-6.64-2.98-6.64-6.64v-43.56c0-3.66,2.98-6.64,6.64-6.64h43.56
		c3.66,0,6.64,2.98,6.64,6.64v43.56C150.76,612.67,147.78,615.65,144.11,615.65z M100.55,559.87c-3.08,0-5.58,2.5-5.58,5.58v43.56
		c0,3.08,2.5,5.58,5.58,5.58h31.05c9.99,0,18.1-8.1,18.1-18.1v-31.05c0-3.08-2.5-5.58-5.58-5.58H100.55z"/>
</g>
<path class="st0" d="M463.75,571.48c2.07,0.13,3.21-2.44,1.64-3.93l-0.16-0.62c0.02-0.05,0.04-0.1,0.06-0.15
	c2.09-4.98,9.17-4.95,11.24,0.04c1.84,4.43,4.18,8.86,4.76,13.55c0.26,2.07,0.14,4.17-0.32,6.2c4.31-9.41,6.58-19.69,6.58-30.02
	c0-2.6-0.14-5.19-0.43-7.78c-0.24-2.12-0.57-4.22-0.99-6.31c-2.31-11.28-7.3-22.02-14.5-30.99c-3.46-1.89-6.35-4.85-8.09-8.4
	c-0.63-1.28-1.12-2.65-1.35-4.06c0.39,0.05,1.49-5.95,1.19-6.32c0.55-0.83,1.53-1.25,2.13-2.06c2.98-4.04,7.09-3.34,9.24,2.16
	c4.58,2.31,4.63,6.15,1.81,9.84c-1.79,2.35-2.03,5.52-3.6,8.03c0.16,0.21,0.33,0.41,0.49,0.61c2.96,3.8,5.52,7.88,7.68,12.17
	c-0.61-4.77,0.29-10.51,1.83-14.21c1.75-4.22,5.02-7.77,7.91-11.42c3.47-4.38,10.57-2.47,11.18,3.08c0.01,0.05,0.01,0.11,0.02,0.16
	c-0.43,0.24-0.85,0.5-1.26,0.77c-2.34,1.55-1.53,5.17,1.24,5.6l0.06,0.01c-0.16,1.54-0.42,3.07-0.81,4.58
	c3.7,14.32-4.29,19.53-15.7,19.76c-0.25,0.13-0.5,0.26-0.75,0.38c1.16,3.26,2.08,6.59,2.76,9.98c0.61,2.99,1.04,6.01,1.28,9.05
	c0.3,3.83,0.27,7.68-0.05,11.5l0.02-0.14c0.82-4.21,3.11-8.14,6.43-10.87c4.95-4.06,11.93-5.56,17.27-8.82
	c2.57-1.57,5.86,0.46,5.41,3.44l-0.02,0.14c-0.79,0.32-1.57,0.7-2.32,1.12c-0.43,0.24-0.85,0.5-1.26,0.77
	c-2.34,1.55-1.53,5.17,1.24,5.6l0.06,0.01c0.05,0.01,0.08,0.01,0.13,0.02c-1.36,3.24-3.26,6.24-5.64,8.83
	c-2.31,12.5-12.26,13.68-22.89,10.04h-0.01c-1.16,5.06-2.86,10.01-5.04,14.73H464.2c-0.06-0.2-0.12-0.41-0.18-0.61
	c1.67,0.1,3.35,0.01,4.99-0.3c-1.34-1.64-2.67-3.29-4.01-4.93c-0.03-0.03-0.06-0.06-0.08-0.1c-0.68-0.84-1.36-1.67-2.04-2.51l0,0
	C462.82,576.55,463.13,573.98,463.75,571.48L463.75,571.48L463.75,571.48z"/>
<path class="st4" d="M102.89,565.54c-3.61-2.45-4.13-7.75-1.05-10.84l-13.85-32.86l8.15-6.06l16.16,39.15
	c2.15,2.41,2.46,6.05,0.54,8.82C110.58,566.99,106.13,567.79,102.89,565.54L102.89,565.54z"/>
<path class="st2" d="M92.69,445.95L92.69,445.95c-5.92-0.49-11.25,3.57-12.35,9.4l-8.06,42.73l25,51l13-6l-16-48l8.69-34.77
	C104.71,453.37,99.82,446.54,92.69,445.95L92.69,445.95z"/>
<path class="st9" d="M104.26,574.92c-0.83,0-1.5,0.67-1.5,1.5v1c0,0.83,0.67,1.5,1.5,1.5h35c0.83,0,1.5-0.67,1.5-1.5v-1
	c0-0.83-0.67-1.5-1.5-1.5H104.26z"/>
<path class="st9" d="M104.26,585.92c-0.83,0-1.5,0.67-1.5,1.5v1c0,0.83,0.67,1.5,1.5,1.5h35c0.83,0,1.5-0.67,1.5-1.5v-1
	c0-0.83-0.67-1.5-1.5-1.5H104.26z"/>
<path class="st9" d="M104.26,596.92c-0.83,0-1.5,0.67-1.5,1.5v1c0,0.83,0.67,1.5,1.5,1.5h35c0.83,0,1.5-0.67,1.5-1.5v-1
	c0-0.83-0.67-1.5-1.5-1.5H104.26z"/>
</svg>
